<!DOCTYPE svg PUBLIC "-//W3C//DTD SVG 1.1//EN" "http://www.w3.org/Graphics/SVG/1.1/DTD/svg11.dtd">
                <svg xmlns="http://www.w3.org/2000/svg" xmlns:xlink="http://www.w3.org/1999/xlink"
                width="606" height="1405" shape-rendering="optimizeSpeed">

            <g>
                <rect x="50" y="80"
            width="167" height="30"
            style="fill:#a5d6a7; stroke:#444; stroke-width:1" />

                <line x1="60" y1="80" x2="60" y2="110"
                style="fill:#a5d6a7; stroke:#444; stroke-width:1" />
                <line x1="207" y1="80" x2="207" y2="110"
                style="fill:#a5d6a7; stroke:#444; stroke-width:1" />

                <title>function fors()</title>
            <text x="75" y="100"
                font-family="monospace" font-size="13" fill="#222">
                <tspan x="75" y="100">function fors()</tspan>
            </text>

            </g>
                <g>
                   <rect x="87" y="128.5"
            width="131.39999999999998" height="30"
            rx="3" ry="3"
            style="fill:#90caf9; stroke:#444; stroke-width:1" />
                   <title>var vast = &quot;&quot;</title>
            <text x="102" y="148.5"
                font-family="monospace" font-size="13" fill="#222">
                <tspan x="102" y="148.5">var vast = &quot;&quot;</tspan>
            </text>


                </g><g>

            <rect x="117" y="212"
            width="99" height="30"
            rx="3" ry="3"
            style="fill:#b39ddb; stroke:#444; stroke-width:1" />
            <polygon points="87,227 117,197 147,227 117,257"
            style="fill:#b39ddb; stroke:#444; stroke-width:1" />

            <title>i &lt; 5</title>
            <text x="162" y="232"
                font-family="monospace" font-size="13" fill="#222">
                <tspan x="162" y="232">i &lt; 5</tspan>
            </text>

            <text x="105.3" y="232"
        font-family="monospace" font-size="13" fill="#222">for</text>
        </g>
                <g>
                   <rect x="137" y="267"
            width="69" height="30"
            rx="3" ry="3"
            style="fill:#90caf9; stroke:#444; stroke-width:1" />
                   <title>i = 1</title>
            <text x="152" y="287"
                font-family="monospace" font-size="13" fill="#222">
                <tspan x="152" y="287">i = 1</tspan>
            </text>


                </g>
                <g>
                   <rect x="137" y="315.5"
            width="53.4" height="30"
            rx="3" ry="3"
            style="fill:#90caf9; stroke:#444; stroke-width:1" />
                   <title>i++</title>
            <text x="152" y="335.5"
                font-family="monospace" font-size="13" fill="#222">
                <tspan x="152" y="335.5">i++</tspan>
            </text>


                </g>
                <g>
                   <rect x="137" y="364"
            width="326.4" height="30"
            rx="3" ry="3"
            style="fill:#90caf9; stroke:#444; stroke-width:1" />
                   <title>vast += i + 1 + &quot;. for-kierros &lt;br /&gt;&quot;</title>
            <text x="152" y="384"
                font-family="monospace" font-size="13" fill="#222">
                <tspan x="152" y="384">vast += i + 1 + &quot;. for-kierros &lt;br /&gt;&quot;</tspan>
            </text>


                </g>
                <g>
                   <rect x="137" y="412.5"
            width="443.4" height="30"
            rx="3" ry="3"
            style="fill:#90caf9; stroke:#444; stroke-width:1" />
                   <title>document.getElementById(&apos;vastaus&apos;).innerHTML = vast</title>
            <text x="152" y="432.5"
                font-family="monospace" font-size="13" fill="#222">
                <tspan x="152" y="432.5">document.getElementById(&apos;vastaus&apos;).innerHTML = vas...</tspan>
            </text>


                </g>
                <g>
                   <rect x="174" y="461"
            width="295.2" height="30"
            rx="2" ry="2"
            style="fill:#C5E1A5; stroke:#444; stroke-width:1" />
                   <title>document.getElementById(&apos;vastaus&apos;)</title>
            <text x="189" y="481"
                font-family="monospace" font-size="13" fill="#222">
                <tspan x="189" y="481">document.getElementById(&apos;vastaus&apos;)</tspan>
            </text>


                </g>
            <g>
                <rect x="50" y="524.5"
            width="182.6" height="30"
            style="fill:#a5d6a7; stroke:#444; stroke-width:1" />

                <line x1="60" y1="524.5" x2="60" y2="554.5"
                style="fill:#a5d6a7; stroke:#444; stroke-width:1" />
                <line x1="222.6" y1="524.5" x2="222.6" y2="554.5"
                style="fill:#a5d6a7; stroke:#444; stroke-width:1" />

                <title>function whiles()</title>
            <text x="75" y="544.5"
                font-family="monospace" font-size="13" fill="#222">
                <tspan x="75" y="544.5">function whiles()</tspan>
            </text>

            </g>
                <g>
                   <rect x="87" y="573"
            width="131.39999999999998" height="30"
            rx="3" ry="3"
            style="fill:#90caf9; stroke:#444; stroke-width:1" />
                   <title>var vast = &quot;&quot;</title>
            <text x="102" y="593"
                font-family="monospace" font-size="13" fill="#222">
                <tspan x="102" y="593">var vast = &quot;&quot;</tspan>
            </text>


                </g>
                <g>
                   <rect x="87" y="621.5"
            width="100.2" height="30"
            rx="3" ry="3"
            style="fill:#90caf9; stroke:#444; stroke-width:1" />
                   <title>var j = 1</title>
            <text x="102" y="641.5"
                font-family="monospace" font-size="13" fill="#222">
                <tspan x="102" y="641.5">var j = 1</tspan>
            </text>


                </g><g>

            <rect x="117" y="705"
            width="99" height="30"
            rx="3" ry="3"
            style="fill:#b39ddb; stroke:#444; stroke-width:1" />
            <polygon points="87,720 117,690 147,720 117,750"
            style="fill:#b39ddb; stroke:#444; stroke-width:1" />

            <title>j &lt; 5</title>
            <text x="162" y="725"
                font-family="monospace" font-size="13" fill="#222">
                <tspan x="162" y="725">j &lt; 5</tspan>
            </text>

            <text x="97.5" y="725"
        font-family="monospace" font-size="13" fill="#222">while</text>
        </g>
                <g>
                   <rect x="137" y="760"
            width="342" height="30"
            rx="3" ry="3"
            style="fill:#90caf9; stroke:#444; stroke-width:1" />
                   <title>vast += j + 1 + &quot;. while-kierros &lt;br /&gt;&quot;</title>
            <text x="152" y="780"
                font-family="monospace" font-size="13" fill="#222">
                <tspan x="152" y="780">vast += j + 1 + &quot;. while-kierros &lt;br /&gt;&quot;</tspan>
            </text>


                </g>
                <g>
                   <rect x="137" y="808.5"
            width="443.4" height="30"
            rx="3" ry="3"
            style="fill:#90caf9; stroke:#444; stroke-width:1" />
                   <title>document.getElementById(&apos;vastaus&apos;).innerHTML = vast</title>
            <text x="152" y="828.5"
                font-family="monospace" font-size="13" fill="#222">
                <tspan x="152" y="828.5">document.getElementById(&apos;vastaus&apos;).innerHTML = vas...</tspan>
            </text>


                </g>
                <g>
                   <rect x="174" y="857"
            width="295.2" height="30"
            rx="2" ry="2"
            style="fill:#C5E1A5; stroke:#444; stroke-width:1" />
                   <title>document.getElementById(&apos;vastaus&apos;)</title>
            <text x="189" y="877"
                font-family="monospace" font-size="13" fill="#222">
                <tspan x="189" y="877">document.getElementById(&apos;vastaus&apos;)</tspan>
            </text>


                </g>
                <g>
                   <rect x="137" y="905.5"
            width="53.4" height="30"
            rx="3" ry="3"
            style="fill:#90caf9; stroke:#444; stroke-width:1" />
                   <title>j++</title>
            <text x="152" y="925.5"
                font-family="monospace" font-size="13" fill="#222">
                <tspan x="152" y="925.5">j++</tspan>
            </text>


                </g>
            <g>
                <rect x="50" y="969"
            width="159.2" height="30"
            style="fill:#a5d6a7; stroke:#444; stroke-width:1" />

                <line x1="60" y1="969" x2="60" y2="999"
                style="fill:#a5d6a7; stroke:#444; stroke-width:1" />
                <line x1="199.2" y1="969" x2="199.2" y2="999"
                style="fill:#a5d6a7; stroke:#444; stroke-width:1" />

                <title>function dos()</title>
            <text x="75" y="989"
                font-family="monospace" font-size="13" fill="#222">
                <tspan x="75" y="989">function dos()</tspan>
            </text>

            </g>
                <g>
                   <rect x="87" y="1017.5"
            width="131.39999999999998" height="30"
            rx="3" ry="3"
            style="fill:#90caf9; stroke:#444; stroke-width:1" />
                   <title>var vast = &quot;&quot;</title>
            <text x="102" y="1037.5"
                font-family="monospace" font-size="13" fill="#222">
                <tspan x="102" y="1037.5">var vast = &quot;&quot;</tspan>
            </text>


                </g>
                <g>
                   <rect x="87" y="1066"
            width="100.2" height="30"
            rx="3" ry="3"
            style="fill:#90caf9; stroke:#444; stroke-width:1" />
                   <title>var k = 1</title>
            <text x="102" y="1086"
                font-family="monospace" font-size="13" fill="#222">
                <tspan x="102" y="1086">var k = 1</tspan>
            </text>


                </g><g>

            <rect x="117" y="1149.5"
            width="99" height="30"
            rx="3" ry="3"
            style="fill:#b39ddb; stroke:#444; stroke-width:1" />
            <polygon points="87,1164.5 117,1134.5 147,1164.5 117,1194.5"
            style="fill:#b39ddb; stroke:#444; stroke-width:1" />

            <title>k &lt; 5</title>
            <text x="162" y="1169.5"
                font-family="monospace" font-size="13" fill="#222">
                <tspan x="162" y="1169.5">k &lt; 5</tspan>
            </text>

            <text x="97.5" y="1169.5"
        font-family="monospace" font-size="13" fill="#222">while</text>
        </g>
                <g>
                   <rect x="137" y="1204.5"
            width="365.4" height="30"
            rx="3" ry="3"
            style="fill:#90caf9; stroke:#444; stroke-width:1" />
                   <title>vast += k + 1 + &quot;. do-while-kierros &lt;br /&gt;&quot;</title>
            <text x="152" y="1224.5"
                font-family="monospace" font-size="13" fill="#222">
                <tspan x="152" y="1224.5">vast += k + 1 + &quot;. do-while-kierros &lt;br /&gt;&quot;</tspan>
            </text>


                </g>
                <g>
                   <rect x="137" y="1253"
            width="443.4" height="30"
            rx="3" ry="3"
            style="fill:#90caf9; stroke:#444; stroke-width:1" />
                   <title>document.getElementById(&apos;vastaus&apos;).innerHTML = vast</title>
            <text x="152" y="1273"
                font-family="monospace" font-size="13" fill="#222">
                <tspan x="152" y="1273">document.getElementById(&apos;vastaus&apos;).innerHTML = vas...</tspan>
            </text>


                </g>
                <g>
                   <rect x="174" y="1301.5"
            width="295.2" height="30"
            rx="2" ry="2"
            style="fill:#C5E1A5; stroke:#444; stroke-width:1" />
                   <title>document.getElementById(&apos;vastaus&apos;)</title>
            <text x="189" y="1321.5"
                font-family="monospace" font-size="13" fill="#222">
                <tspan x="189" y="1321.5">document.getElementById(&apos;vastaus&apos;)</tspan>
            </text>


                </g>
                <g>
                   <rect x="137" y="1350"
            width="53.4" height="30"
            rx="3" ry="3"
            style="fill:#90caf9; stroke:#444; stroke-width:1" />
                   <title>k++</title>
            <text x="152" y="1370"
                font-family="monospace" font-size="13" fill="#222">
                <tspan x="152" y="1370">k++</tspan>
            </text>


                </g>
            <g>
               <rect x="25" y="13.75"
            width="216.6" height="24"
            style="fill:#fff59d; stroke:#444; stroke-width:1" />
               <circle cx="25" cy="25" r="15"
        style="fill:#fff59d; stroke:#444; stroke-width:1" />
               <title>Program: source module</title>
            <text x="55" y="30"
                font-family="monospace" font-size="13" fill="#222">
                <tspan x="55" y="30">Program: source module</tspan>
            </text>
            </g>
            <g>
               <path d="M25, 40 L25 91 Q25 95
                29 95
                L42 95 "
        style="fill:none; stroke:#444; stroke-width:1" />
               <path d="M42, 92 L50, 95 L42, 98 Z"
        fill="#333" />
            </g>
            <g>
               <path d="M68.5, 110 L68.5 139.5 Q68.5 143.5
                72.5 143.5
                L79 143.5 "
        style="fill:none; stroke:#444; stroke-width:1" />
               <path d="M79, 140.5 L87, 143.5 L79, 146.5 Z"
        fill="#333" />
            </g>
            <g>
               <path d="M68.5, 110 L68.5 223 Q68.5 227
                72.5 227
                L79 227 "
        style="fill:none; stroke:#444; stroke-width:1" />
               <path d="M79, 224 L87, 227 L79, 230 Z"
        fill="#333" />
            </g>
            <g>
               <path d="M117, 257 L117 278 Q117 282
                121 282
                L129 282 "
        style="fill:none; stroke:#444; stroke-width:1" />
               <path d="M129, 279 L137, 282 L129, 285 Z"
        fill="#333" />
            </g>
            <g>
               <path d="M117, 257 L117 326.5 Q117 330.5
                121 330.5
                L129 330.5 "
        style="fill:none; stroke:#444; stroke-width:1" />
               <path d="M129, 327.5 L137, 330.5 L129, 333.5 Z"
        fill="#333" />
            </g>
            <g>
               <path d="M117, 257 L117 375 Q117 379
                121 379
                L129 379 "
        style="fill:none; stroke:#444; stroke-width:1" />
               <path d="M129, 376 L137, 379 L129, 382 Z"
        fill="#333" />
            </g>
            <g>
               <path d="M117, 257 L117 423.5 Q117 427.5
                121 427.5
                L129 427.5 "
        style="fill:none; stroke:#444; stroke-width:1" />
               <path d="M129, 424.5 L137, 427.5 L129, 430.5 Z"
        fill="#333" />
            </g>
            <g>
               <path d="M155.5, 442.5 L155.5 472 Q155.5 476
                159.5 476
                L166 476 "
        style="fill:none; stroke:#444; stroke-width:1" />
               <path d="M166, 473 L174, 476 L166, 479 Z"
        fill="#333" />
            </g>
            <g>
               <path d="M469.2, 476 L596.4 476  Q600.4 476
                600.4 472
                L600.4 185 Q600.4 177
                596.4 177
                L125 177  Q117 177
                117 181
                L117 189"
        style="fill:none; stroke:#444; stroke-width:1" />
               <path d="M114, 189 L117, 197 L120, 189 Z"
        fill="#333" />
            </g>
            <g>
               <path d="M25, 40 L25 535.5 Q25 539.5
                29 539.5
                L42 539.5 "
        style="fill:none; stroke:#444; stroke-width:1" />
               <path d="M42, 536.5 L50, 539.5 L42, 542.5 Z"
        fill="#333" />
            </g>
            <g>
               <path d="M68.5, 554.5 L68.5 584 Q68.5 588
                72.5 588
                L79 588 "
        style="fill:none; stroke:#444; stroke-width:1" />
               <path d="M79, 585 L87, 588 L79, 591 Z"
        fill="#333" />
            </g>
            <g>
               <path d="M68.5, 554.5 L68.5 632.5 Q68.5 636.5
                72.5 636.5
                L79 636.5 "
        style="fill:none; stroke:#444; stroke-width:1" />
               <path d="M79, 633.5 L87, 636.5 L79, 639.5 Z"
        fill="#333" />
            </g>
            <g>
               <path d="M68.5, 554.5 L68.5 716 Q68.5 720
                72.5 720
                L79 720 "
        style="fill:none; stroke:#444; stroke-width:1" />
               <path d="M79, 717 L87, 720 L79, 723 Z"
        fill="#333" />
            </g>
            <g>
               <path d="M117, 750 L117 771 Q117 775
                121 775
                L129 775 "
        style="fill:none; stroke:#444; stroke-width:1" />
               <path d="M129, 772 L137, 775 L129, 778 Z"
        fill="#333" />
            </g>
            <g>
               <path d="M117, 750 L117 819.5 Q117 823.5
                121 823.5
                L129 823.5 "
        style="fill:none; stroke:#444; stroke-width:1" />
               <path d="M129, 820.5 L137, 823.5 L129, 826.5 Z"
        fill="#333" />
            </g>
            <g>
               <path d="M155.5, 838.5 L155.5 868 Q155.5 872
                159.5 872
                L166 872 "
        style="fill:none; stroke:#444; stroke-width:1" />
               <path d="M166, 869 L174, 872 L166, 875 Z"
        fill="#333" />
            </g>
            <g>
               <path d="M117, 750 L117 916.5 Q117 920.5
                121 920.5
                L129 920.5 "
        style="fill:none; stroke:#444; stroke-width:1" />
               <path d="M129, 917.5 L137, 920.5 L129, 923.5 Z"
        fill="#333" />
            </g>
            <g>
               <path d="M190.4, 920.5 L596.4 920.5  Q600.4 920.5
                600.4 916.5
                L600.4 678 Q600.4 670
                596.4 670
                L125 670  Q117 670
                117 674
                L117 682"
        style="fill:none; stroke:#444; stroke-width:1" />
               <path d="M114, 682 L117, 690 L120, 682 Z"
        fill="#333" />
            </g>
            <g>
               <path d="M25, 40 L25 980 Q25 984
                29 984
                L42 984 "
        style="fill:none; stroke:#444; stroke-width:1" />
               <path d="M42, 981 L50, 984 L42, 987 Z"
        fill="#333" />
            </g>
            <g>
               <path d="M68.5, 999 L68.5 1028.5 Q68.5 1032.5
                72.5 1032.5
                L79 1032.5 "
        style="fill:none; stroke:#444; stroke-width:1" />
               <path d="M79, 1029.5 L87, 1032.5 L79, 1035.5 Z"
        fill="#333" />
            </g>
            <g>
               <path d="M68.5, 999 L68.5 1077 Q68.5 1081
                72.5 1081
                L79 1081 "
        style="fill:none; stroke:#444; stroke-width:1" />
               <path d="M79, 1078 L87, 1081 L79, 1084 Z"
        fill="#333" />
            </g>
            <g>
               <path d="M68.5, 999 L68.5 1160.5 Q68.5 1164.5
                72.5 1164.5
                L79 1164.5 "
        style="fill:none; stroke:#444; stroke-width:1" />
               <path d="M79, 1161.5 L87, 1164.5 L79, 1167.5 Z"
        fill="#333" />
            </g>
            <g>
               <path d="M117, 1194.5 L117 1215.5 Q117 1219.5
                121 1219.5
                L129 1219.5 "
        style="fill:none; stroke:#444; stroke-width:1" />
               <path d="M129, 1216.5 L137, 1219.5 L129, 1222.5 Z"
        fill="#333" />
            </g>
            <g>
               <path d="M117, 1194.5 L117 1264 Q117 1268
                121 1268
                L129 1268 "
        style="fill:none; stroke:#444; stroke-width:1" />
               <path d="M129, 1265 L137, 1268 L129, 1271 Z"
        fill="#333" />
            </g>
            <g>
               <path d="M155.5, 1283 L155.5 1312.5 Q155.5 1316.5
                159.5 1316.5
                L166 1316.5 "
        style="fill:none; stroke:#444; stroke-width:1" />
               <path d="M166, 1313.5 L174, 1316.5 L166, 1319.5 Z"
        fill="#333" />
            </g>
            <g>
               <path d="M117, 1194.5 L117 1361 Q117 1365
                121 1365
                L129 1365 "
        style="fill:none; stroke:#444; stroke-width:1" />
               <path d="M129, 1362 L137, 1365 L129, 1368 Z"
        fill="#333" />
            </g>
            <g>
               <path d="M190.4, 1365 L596.4 1365  Q600.4 1365
                600.4 1361
                L600.4 1122.5 Q600.4 1114.5
                596.4 1114.5
                L125 1114.5  Q117 1114.5
                117 1118.5
                L117 1126.5"
        style="fill:none; stroke:#444; stroke-width:1" />
               <path d="M114, 1126.5 L117, 1134.5 L120, 1126.5 Z"
        fill="#333" />
            </g>
            </svg><!DOCTYPE svg PUBLIC "-//W3C//DTD SVG 1.1//EN" "http://www.w3.org/Graphics/SVG/1.1/DTD/svg11.dtd">
                <svg xmlns="http://www.w3.org/2000/svg" xmlns:xlink="http://www.w3.org/1999/xlink"
                width="606" height="961" shape-rendering="optimizeSpeed">

            <g>
                <rect x="50" y="80"
            width="167" height="30"
            style="fill:#a5d6a7; stroke:#444; stroke-width:1" />

                <line x1="60" y1="80" x2="60" y2="110"
                style="fill:#a5d6a7; stroke:#444; stroke-width:1" />
                <line x1="207" y1="80" x2="207" y2="110"
                style="fill:#a5d6a7; stroke:#444; stroke-width:1" />

                <title>function fors()</title>
            <text x="75" y="100"
                font-family="monospace" font-size="13" fill="#222">
                <tspan x="75" y="100">function fors()</tspan>
            </text>

            </g>
                <g>
                   <rect x="87" y="128.5"
            width="131.39999999999998" height="30"
            rx="3" ry="3"
            style="fill:#90caf9; stroke:#444; stroke-width:1" />
                   <title>var vast = &quot;&quot;</title>
            <text x="102" y="148.5"
                font-family="monospace" font-size="13" fill="#222">
                <tspan x="102" y="148.5">var vast = &quot;&quot;</tspan>
            </text>


                </g><g>

            <rect x="117" y="212"
            width="99" height="30"
            rx="3" ry="3"
            style="fill:#b39ddb; stroke:#444; stroke-width:1" />
            <polygon points="87,227 117,197 147,227 117,257"
            style="fill:#b39ddb; stroke:#444; stroke-width:1" />

            <title>i &lt; 5</title>
            <text x="162" y="232"
                font-family="monospace" font-size="13" fill="#222">
                <tspan x="162" y="232">i &lt; 5</tspan>
            </text>

            <text x="105.3" y="232"
        font-family="monospace" font-size="13" fill="#222">for</text>
        </g>
                <g>
                   <rect x="137" y="267"
            width="76.8" height="30"
            rx="3" ry="3"
            style="fill:#90caf9; stroke:#444; stroke-width:1" />
                   <title>i = 10</title>
            <text x="152" y="287"
                font-family="monospace" font-size="13" fill="#222">
                <tspan x="152" y="287">i = 10</tspan>
            </text>


                </g>
                <g>
                   <rect x="137" y="315.5"
            width="53.4" height="30"
            rx="3" ry="3"
            style="fill:#90caf9; stroke:#444; stroke-width:1" />
                   <title>i++</title>
            <text x="152" y="335.5"
                font-family="monospace" font-size="13" fill="#222">
                <tspan x="152" y="335.5">i++</tspan>
            </text>


                </g>
                <g>
                   <rect x="137" y="364"
            width="326.4" height="30"
            rx="3" ry="3"
            style="fill:#90caf9; stroke:#444; stroke-width:1" />
                   <title>vast += i + 1 + &quot;. for-kierros &lt;br /&gt;&quot;</title>
            <text x="152" y="384"
                font-family="monospace" font-size="13" fill="#222">
                <tspan x="152" y="384">vast += i + 1 + &quot;. for-kierros &lt;br /&gt;&quot;</tspan>
            </text>


                </g>
                <g>
                   <rect x="137" y="412.5"
            width="443.4" height="30"
            rx="3" ry="3"
            style="fill:#90caf9; stroke:#444; stroke-width:1" />
                   <title>document.getElementById(&apos;vastaus&apos;).innerHTML = vast</title>
            <text x="152" y="432.5"
                font-family="monospace" font-size="13" fill="#222">
                <tspan x="152" y="432.5">document.getElementById(&apos;vastaus&apos;).innerHTML = vas...</tspan>
            </text>


                </g>
                <g>
                   <rect x="174" y="461"
            width="295.2" height="30"
            rx="2" ry="2"
            style="fill:#C5E1A5; stroke:#444; stroke-width:1" />
                   <title>document.getElementById(&apos;vastaus&apos;)</title>
            <text x="189" y="481"
                font-family="monospace" font-size="13" fill="#222">
                <tspan x="189" y="481">document.getElementById(&apos;vastaus&apos;)</tspan>
            </text>


                </g>
            <g>
                <rect x="50" y="524.5"
            width="182.6" height="30"
            style="fill:#a5d6a7; stroke:#444; stroke-width:1" />

                <line x1="60" y1="524.5" x2="60" y2="554.5"
                style="fill:#a5d6a7; stroke:#444; stroke-width:1" />
                <line x1="222.6" y1="524.5" x2="222.6" y2="554.5"
                style="fill:#a5d6a7; stroke:#444; stroke-width:1" />

                <title>function whiles()</title>
            <text x="75" y="544.5"
                font-family="monospace" font-size="13" fill="#222">
                <tspan x="75" y="544.5">function whiles()</tspan>
            </text>

            </g>
                <g>
                   <rect x="87" y="573"
            width="131.39999999999998" height="30"
            rx="3" ry="3"
            style="fill:#90caf9; stroke:#444; stroke-width:1" />
                   <title>var vast = &quot;&quot;</title>
            <text x="102" y="593"
                font-family="monospace" font-size="13" fill="#222">
                <tspan x="102" y="593">var vast = &quot;&quot;</tspan>
            </text>


                </g>
                <g>
                   <rect x="87" y="621.5"
            width="108" height="30"
            rx="3" ry="3"
            style="fill:#90caf9; stroke:#444; stroke-width:1" />
                   <title>var j = 10</title>
            <text x="102" y="641.5"
                font-family="monospace" font-size="13" fill="#222">
                <tspan x="102" y="641.5">var j = 10</tspan>
            </text>


                </g><g>

            <rect x="117" y="705"
            width="99" height="30"
            rx="3" ry="3"
            style="fill:#b39ddb; stroke:#444; stroke-width:1" />
            <polygon points="87,720 117,690 147,720 117,750"
            style="fill:#b39ddb; stroke:#444; stroke-width:1" />

            <title>j &lt; 5</title>
            <text x="162" y="725"
                font-family="monospace" font-size="13" fill="#222">
                <tspan x="162" y="725">j &lt; 5</tspan>
            </text>

            <text x="97.5" y="725"
        font-family="monospace" font-size="13" fill="#222">while</text>
        </g>
                <g>
                   <rect x="137" y="760"
            width="342" height="30"
            rx="3" ry="3"
            style="fill:#90caf9; stroke:#444; stroke-width:1" />
                   <title>vast += j + 1 + &quot;. while-kierros &lt;br /&gt;&quot;</title>
            <text x="152" y="780"
                font-family="monospace" font-size="13" fill="#222">
                <tspan x="152" y="780">vast += j + 1 + &quot;. while-kierros &lt;br /&gt;&quot;</tspan>
            </text>


                </g>
                <g>
                   <rect x="137" y="808.5"
            width="443.4" height="30"
            rx="3" ry="3"
            style="fill:#90caf9; stroke:#444; stroke-width:1" />
                   <title>document.getElementById(&apos;vastaus&apos;).innerHTML = vast</title>
            <text x="152" y="828.5"
                font-family="monospace" font-size="13" fill="#222">
                <tspan x="152" y="828.5">document.getElementById(&apos;vastaus&apos;).innerHTML = vas...</tspan>
            </text>


                </g>
                <g>
                   <rect x="174" y="857"
            width="295.2" height="30"
            rx="2" ry="2"
            style="fill:#C5E1A5; stroke:#444; stroke-width:1" />
                   <title>document.getElementById(&apos;vastaus&apos;)</title>
            <text x="189" y="877"
                font-family="monospace" font-size="13" fill="#222">
                <tspan x="189" y="877">document.getElementById(&apos;vastaus&apos;)</tspan>
            </text>


                </g>
                <g>
                   <rect x="137" y="905.5"
            width="53.4" height="30"
            rx="3" ry="3"
            style="fill:#90caf9; stroke:#444; stroke-width:1" />
                   <title>j++</title>
            <text x="152" y="925.5"
                font-family="monospace" font-size="13" fill="#222">
                <tspan x="152" y="925.5">j++</tspan>
            </text>


                </g>
            <g>
               <rect x="25" y="13.75"
            width="216.6" height="24"
            style="fill:#fff59d; stroke:#444; stroke-width:1" />
               <circle cx="25" cy="25" r="15"
        style="fill:#fff59d; stroke:#444; stroke-width:1" />
               <title>Program: source module</title>
            <text x="55" y="30"
                font-family="monospace" font-size="13" fill="#222">
                <tspan x="55" y="30">Program: source module</tspan>
            </text>
            </g>
            <g>
               <path d="M25, 40 L25 91 Q25 95
                29 95
                L42 95 "
        style="fill:none; stroke:#444; stroke-width:1" />
               <path d="M42, 92 L50, 95 L42, 98 Z"
        fill="#333" />
            </g>
            <g>
               <path d="M68.5, 110 L68.5 139.5 Q68.5 143.5
                72.5 143.5
                L79 143.5 "
        style="fill:none; stroke:#444; stroke-width:1" />
               <path d="M79, 140.5 L87, 143.5 L79, 146.5 Z"
        fill="#333" />
            </g>
            <g>
               <path d="M68.5, 110 L68.5 223 Q68.5 227
                72.5 227
                L79 227 "
        style="fill:none; stroke:#444; stroke-width:1" />
               <path d="M79, 224 L87, 227 L79, 230 Z"
        fill="#333" />
            </g>
            <g>
               <path d="M117, 257 L117 278 Q117 282
                121 282
                L129 282 "
        style="fill:none; stroke:#444; stroke-width:1" />
               <path d="M129, 279 L137, 282 L129, 285 Z"
        fill="#333" />
            </g>
            <g>
               <path d="M117, 257 L117 326.5 Q117 330.5
                121 330.5
                L129 330.5 "
        style="fill:none; stroke:#444; stroke-width:1" />
               <path d="M129, 327.5 L137, 330.5 L129, 333.5 Z"
        fill="#333" />
            </g>
            <g>
               <path d="M117, 257 L117 375 Q117 379
                121 379
                L129 379 "
        style="fill:none; stroke:#444; stroke-width:1" />
               <path d="M129, 376 L137, 379 L129, 382 Z"
        fill="#333" />
            </g>
            <g>
               <path d="M117, 257 L117 423.5 Q117 427.5
                121 427.5
                L129 427.5 "
        style="fill:none; stroke:#444; stroke-width:1" />
               <path d="M129, 424.5 L137, 427.5 L129, 430.5 Z"
        fill="#333" />
            </g>
            <g>
               <path d="M155.5, 442.5 L155.5 472 Q155.5 476
                159.5 476
                L166 476 "
        style="fill:none; stroke:#444; stroke-width:1" />
               <path d="M166, 473 L174, 476 L166, 479 Z"
        fill="#333" />
            </g>
            <g>
               <path d="M469.2, 476 L596.4 476  Q600.4 476
                600.4 472
                L600.4 185 Q600.4 177
                596.4 177
                L125 177  Q117 177
                117 181
                L117 189"
        style="fill:none; stroke:#444; stroke-width:1" />
               <path d="M114, 189 L117, 197 L120, 189 Z"
        fill="#333" />
            </g>
            <g>
               <path d="M25, 40 L25 535.5 Q25 539.5
                29 539.5
                L42 539.5 "
        style="fill:none; stroke:#444; stroke-width:1" />
               <path d="M42, 536.5 L50, 539.5 L42, 542.5 Z"
        fill="#333" />
            </g>
            <g>
               <path d="M68.5, 554.5 L68.5 584 Q68.5 588
                72.5 588
                L79 588 "
        style="fill:none; stroke:#444; stroke-width:1" />
               <path d="M79, 585 L87, 588 L79, 591 Z"
        fill="#333" />
            </g>
            <g>
               <path d="M68.5, 554.5 L68.5 632.5 Q68.5 636.5
                72.5 636.5
                L79 636.5 "
        style="fill:none; stroke:#444; stroke-width:1" />
               <path d="M79, 633.5 L87, 636.5 L79, 639.5 Z"
        fill="#333" />
            </g>
            <g>
               <path d="M68.5, 554.5 L68.5 716 Q68.5 720
                72.5 720
                L79 720 "
        style="fill:none; stroke:#444; stroke-width:1" />
               <path d="M79, 717 L87, 720 L79, 723 Z"
        fill="#333" />
            </g>
            <g>
               <path d="M117, 750 L117 771 Q117 775
                121 775
                L129 775 "
        style="fill:none; stroke:#444; stroke-width:1" />
               <path d="M129, 772 L137, 775 L129, 778 Z"
        fill="#333" />
            </g>
            <g>
               <path d="M117, 750 L117 819.5 Q117 823.5
                121 823.5
                L129 823.5 "
        style="fill:none; stroke:#444; stroke-width:1" />
               <path d="M129, 820.5 L137, 823.5 L129, 826.5 Z"
        fill="#333" />
            </g>
            <g>
               <path d="M155.5, 838.5 L155.5 868 Q155.5 872
                159.5 872
                L166 872 "
        style="fill:none; stroke:#444; stroke-width:1" />
               <path d="M166, 869 L174, 872 L166, 875 Z"
        fill="#333" />
            </g>
            <g>
               <path d="M117, 750 L117 916.5 Q117 920.5
                121 920.5
                L129 920.5 "
        style="fill:none; stroke:#444; stroke-width:1" />
               <path d="M129, 917.5 L137, 920.5 L129, 923.5 Z"
        fill="#333" />
            </g>
            <g>
               <path d="M190.4, 920.5 L596.4 920.5  Q600.4 920.5
                600.4 916.5
                L600.4 678 Q600.4 670
                596.4 670
                L125 670  Q117 670
                117 674
                L117 682"
        style="fill:none; stroke:#444; stroke-width:1" />
               <path d="M114, 682 L117, 690 L120, 682 Z"
        fill="#333" />
            </g>
            </svg>
