<?xml version="1.0" encoding="UTF-8"?>
<!DOCTYPE svg PUBLIC "-//W3C//DTD SVG 1.1//EN" "http://www.w3.org/Graphics/SVG/1.1/DTD/svg11.dtd">
<svg version="1.1" xmlns="http://www.w3.org/2000/svg" xmlns:xlink="http://www.w3.org/1999/xlink" x="0" y="0" width="1370" height="734" viewBox="0, 0, 1370, 734">
  <g id="Layer_1">
    <path d="M669.213,85.609 L635.952,82.72 L617.148,72.589 C617.148,72.589 479.742,56.677 346.674,66.802 C346.674,66.802 291.714,92.839 283.035,113.086 C283.035,113.086 84.885,280.867 47.271,403.804 L19.791,409.591 L6.777,431.29 L31.362,470.341 L73.308,480.466 C73.308,480.466 68.97,489.145 77.649,494.929 C86.328,500.713 106.578,500.713 106.578,500.713 L170.217,520.963 L93.558,535.426 C93.558,535.426 112.362,565.804 142.731,561.463 L183.237,551.341 C183.237,551.341 212.163,610.642 270.018,609.193 C270.018,609.193 337.995,620.761 361.14,578.818 C384.276,536.878 362.589,574.477 362.589,574.477 L504.327,619.318 L578.091,622.207 C578.091,622.207 572.307,732.136 683.676,730.69 C683.676,730.69 793.596,752.383 823.98,578.818 L1145.07,480.466 L1156.635,486.25 C1156.635,486.25 1146.516,536.878 1228.959,536.878 C1228.959,536.878 1275.24,525.301 1286.82,468.898 C1286.82,468.898 1295.493,445.753 1294.05,408.145 L1318.635,380.668 L1335.987,383.557 L1362.027,354.634 L1337.436,337.279 L1341.777,266.407 L1327.314,251.938 L1234.743,234.577 L1188.462,220.114 L1168.212,218.671 L1159.53,218.671 L1089.624,213.37 L986.448,121.765 L958.485,107.302 L915.102,76.93 C915.102,76.93 799.386,62.464 669.213,85.609" fill="#363C35"/>
    <path d="M669.213,85.609 L635.952,82.72 L617.148,72.589 C617.148,72.589 479.742,56.677 346.674,66.802 C346.674,66.802 291.714,92.839 283.035,113.086 C283.035,113.086 84.885,280.867 47.271,403.804 L19.791,409.591 L6.777,431.29 L31.362,470.341 L73.308,480.466 C73.308,480.466 68.97,489.145 77.649,494.929 C86.328,500.713 106.578,500.713 106.578,500.713 L170.217,520.963 L93.558,535.426 C93.558,535.426 112.362,565.804 142.731,561.463 L183.237,551.341 C183.237,551.341 212.163,610.642 270.018,609.193 C270.018,609.193 337.995,620.761 361.14,578.818 C384.276,536.878 362.589,574.477 362.589,574.477 L504.327,619.318 L578.091,622.207 C578.091,622.207 572.307,732.136 683.676,730.69 C683.676,730.69 793.596,752.383 823.98,578.818 L1145.07,480.466 L1156.635,486.25 C1156.635,486.25 1146.516,536.878 1228.959,536.878 C1228.959,536.878 1275.24,525.301 1286.82,468.898 C1286.82,468.898 1295.493,445.753 1294.05,408.145 L1318.635,380.668 L1335.987,383.557 L1362.027,354.634 L1337.436,337.279 L1341.777,266.407 L1327.314,251.938 L1234.743,234.577 L1188.462,220.114 L1168.212,218.671 L1159.53,218.671 L1089.624,213.37 L986.448,121.765 L958.485,107.302 L915.102,76.93 C915.102,76.93 799.386,62.464 669.213,85.609 z" fill-opacity="0" stroke="#363C35" stroke-width="15.882"/>
    <path d="M639.807,143.947 L496.131,487.216 L542.412,487.216 L562.668,547.963 L531.81,562.429 L468.171,575.926 L367.89,553.75 C367.89,553.75 357.279,562.429 346.674,559.534 C336.066,556.645 326.424,545.074 326.424,545.074 L305.211,541.216 L306.177,564.358 C306.177,564.358 452.745,590.389 456.6,591.352 C460.455,592.321 512.523,602.923 529.878,604.852 C547.242,606.787 597.372,604.852 601.233,600.991 C605.088,597.139 662.946,449.611 772.869,417.787 C772.869,417.787 858.69,408.145 855.795,491.071 L831.696,563.392 L1142.177,474.685 L1172.07,445.753 C1172.07,445.753 1230.888,330.046 1270.422,320.398 C1270.422,320.398 1322.49,308.83 1305.135,390.793 L1324.419,371.509 L1339.848,321.364 L1333.098,261.583 L1177.854,224.941 L1169.177,223.975 L1170.144,248.083 L1161.462,247.12 L1158.567,225.904 L1110.359,223.975 L1141.215,259.654 L1050.573,267.373 L919.44,286.654 C919.44,286.654 897.258,289.543 893.403,289.543 C889.545,289.543 856.761,286.654 851.94,283.759 C847.119,280.87 825.909,263.512 825.909,263.512 L724.656,143.947 L834.585,126.586 L981.144,118.873 L931.008,108.268 L902.805,98.626 L816.744,97.177 L703.923,100.792 C703.923,100.792 692.358,126.103 673.551,123.214 C662.115,121.45 666.804,92.839 666.804,92.839 L640.77,91.876 L640.77,131.404 z" fill="#4489B7"/>
    <path d="M483.597,486.25 L560.739,303.043 L616.665,152.62 L608.466,147.802 L546.753,312.685 C546.753,312.685 543.864,326.182 512.523,324.253 C481.185,322.327 277.251,301.117 277.251,301.117 L151.896,274.12 L153.825,257.725 C153.825,257.725 192.372,202.579 273.63,140.566 L294.603,119.836 C294.603,119.836 203.481,174.802 129.231,275.086 C129.231,275.086 72.828,345.469 53.538,399.466 z" fill="#4489B7"/>
    <path d="M476.847,424.059 L400.188,408.143 L374.157,451.542 L460.938,471.789 z" fill="#A73834"/>
    <path d="M145.625,366.203 L93.557,356.081 L76.199,389.345 L128.273,403.805 z" fill="#A73834"/>
    <path d="M233.994,409.788 C241.896,414.177 254.079,407.325 261.207,394.482 C268.338,381.648 267.711,367.68 259.806,363.291 C251.907,358.908 239.724,365.757 232.596,378.597 C225.465,391.437 226.089,405.399 233.994,409.788" fill="#FEFEFE"/>
    <path d="M337.992,122.491 C337.992,122.491 305.931,121.765 290.265,138.4 C290.265,138.4 203.481,216.508 176.007,248.323 C176.007,248.323 147.072,267.124 186.129,272.908 C186.129,272.908 278.697,295.33 505.773,312.685 C505.773,312.685 533.256,321.364 543.381,293.884 L596.892,152.137 C596.892,152.137 595.449,137.671 563.628,134.782 C563.628,134.782 420.435,122.491 337.992,122.491" fill="#FEFEFE"/>
    <path d="M86.327,422.611 L51.614,416.821 L28.472,421.168 L24.131,435.628 L38.591,460.219 L81.986,480.466 L73.307,437.074 z" fill="#D1D3D4"/>
    <path d="M116.699,429.842 L93.557,444.305 L100.79,476.126 L109.469,500.714 L192.395,522.896 L189.983,491.552 L290.264,513.248 L292.679,532.049 L319.193,535.913 L313.406,492.035 L332.21,474.683 z" fill="#D1D3D4"/>
    <path d="M372.71,484.803 L339.443,502.161 L348.122,538.326 C348.122,538.326 433.457,560.016 445.028,561.465 C456.599,562.911 476.846,562.911 476.846,562.911 L533.255,551.343 L530.363,505.05 L511.559,497.82 L458.048,503.604 z" fill="#D1D3D4"/>
    <path d="M197.214,501.678 L201.555,549.411 L284.964,571.107 L279.66,519.516 z" fill="#FEFEFE"/>
    <path d="M536.145,442.858 L540.486,464.554 L608.463,457.324 L605.571,428.395 z" fill="#A73834"/>
    <path d="M903.525,341.614 L913.656,369.097 L876.042,373.432 L854.346,369.097 L797.946,356.08 L549.171,383.557 L565.077,334.384 L744.426,314.131 C744.426,314.131 800.835,312.685 832.659,332.935 C832.659,332.935 865.92,348.844 903.525,341.614" fill="#FEFEFE"/>
    <path d="M915.104,340.167 L922.334,367.65 L933.905,366.204 L926.669,340.167 z" fill="#FEFEFE"/>
    <path d="M959.934,335.831 L964.269,358.976 C964.269,358.976 1189.908,331.484 1330.203,289.544 L1330.203,285.206 C1330.203,285.206 1252.098,283.76 1221.729,296.774 z" fill="#FEFEFE"/>
    <path d="M184.202,543.382 C184.202,543.382 179.132,526.75 169.73,525.304 L101.756,536.878 C101.756,536.878 124.175,559.297 140.807,557.842 z" fill="#D1D3D4"/>
    <path d="M832.659,143.947 C832.659,143.947 875.079,216.259 878.937,221.08 C882.792,225.904 894.369,274.12 894.369,274.12 C894.369,274.12 889.545,280.87 877.008,276.046 C864.474,271.225 841.335,254.83 841.335,254.83 L750.693,154.552 z" fill="#FEFEFE"/>
    <path d="M866.4,140.082 L975.36,137.19 L1110.84,252.903 L928.116,275.085 C928.116,275.085 898.221,184.446 866.4,140.082" fill="#FEFEFE"/>
    <path d="M633.052,102.966 C633.052,102.966 630.883,124.656 627.994,128.277 C625.099,131.886 620.038,140.565 614.248,135.507 C608.464,130.44 607.018,123.939 601.957,119.601 C596.89,115.254 573.754,107.301 569.419,107.301 C565.075,107.301 467.443,98.625 460.213,99.348 C452.98,100.071 362.587,101.52 362.587,101.52 C362.587,101.52 330.76,100.791 323.53,102.24 C316.297,103.686 293.161,108.024 293.161,108.024 L335.827,79.824 L364.753,75.477 C364.753,75.477 497.815,71.142 601.957,78.378 C601.957,78.378 631.606,81.987 633.052,102.966" fill="#D1D3D4"/>
    <path d="M723.493,672.915 C752.512,677.448 781.549,645.834 788.335,602.304 C795.136,558.768 777.118,519.813 748.096,515.277 C719.077,510.75 690.046,542.364 683.245,585.894 C676.453,629.427 694.468,668.394 723.493,672.915" fill="#FEFEFE"/>
    <path d="M1230.326,497.512 C1250.984,500.74 1271.645,478.234 1276.484,447.256 C1281.32,416.269 1268.498,388.534 1247.84,385.315 C1227.182,382.09 1206.518,404.596 1201.685,435.574 C1196.846,466.561 1209.671,494.293 1230.326,497.512" fill="#FEFEFE"/>
    <path d="M831.212,529.644 C831.212,529.644 802.28,448.65 753.104,445.752 C753.104,445.752 868.811,399.465 831.212,529.644" fill="#7F8083"/>
    <path d="M1294.05,373.433 C1294.05,373.433 1283.922,343.061 1259.328,338.72 C1259.328,338.72 1276.689,321.362 1291.155,332.936 C1291.155,332.936 1301.283,351.737 1294.05,373.433" fill="#7F8083"/>
    <path d="M1168.214,218.673 L1163.15,1.719 L1159.529,3.891 L1160.261,223.008 z" fill="#363C35"/>
    <path d="M954.15,102.24 C954.15,102.24 928.836,82.719 925.941,81.273 C923.052,79.824 910.755,77.652 907.866,77.652 C904.971,77.652 762.504,73.311 687.297,87.774 C687.297,87.774 670.356,122.73 677.892,116.703 C681.507,113.808 683.676,118.872 694.527,96.453 C694.527,96.453 803.727,79.824 917.265,87.054 C917.265,87.054 944.748,107.304 954.15,102.24" fill="#D1D3D4"/>
    <path d="M917.022,284.242 L940.17,340.168 L944.988,368.134 C944.988,368.134 943.542,457.324 936.309,535.915 L943.542,533.98 L953.667,367.168 L948.846,338.236 L924.741,283.276 z" fill="#363C35"/>
    <path d="M1133.109,260.258 L1156.248,311.475 L1161.066,337.093 C1161.066,337.093 1152.393,490.769 1152.393,490.769 L1159.623,489.008 L1169.745,336.208 L1164.924,309.711 L1140.819,259.373 z" fill="#363C35"/>
    <path d="M1099.047,247.825 C1099.047,247.825 1041.969,218.749 1006.431,220.9 C970.89,223.054 917.049,207.976 899.817,184.282 L932.121,266.131 z" fill="#BAE5F9"/>
  </g>
</svg>
