<?xml version="1.0"?>
<svg xmlns:rdf="http://www.w3.org/1999/02/22-rdf-syntax-ns#" xmlns="http://www.w3.org/2000/svg" xmlns:cc="http://creativecommons.org/ns#" xmlns:xlink="http://www.w3.org/1999/xlink" xmlns:dc="http://purl.org/dc/elements/1.1/" xmlns:svg="http://www.w3.org/2000/svg" id="svg2" viewBox="0 0 1000 400" version="1.0">
  <defs id="defs4">
    <linearGradient id="linearGradient9761">
      <stop id="stop9763" stop-color="#999" offset="0"/>
      <stop id="stop9765" stop-color="#999" stop-opacity="0" offset="1"/>
    </linearGradient>
    <linearGradient id="linearGradient3641">
      <stop id="stop3643" stop-color="#666" offset="0"/>
      <stop id="stop3645" stop-color="#666" stop-opacity="0" offset="1"/>
    </linearGradient>
    <linearGradient id="linearGradient4505">
      <stop id="stop4507" stop-color="#f7f7f7" stop-opacity=".728" offset="0"/>
      <stop id="stop4509" stop-color="#c4c4c4" stop-opacity="0" offset="1"/>
    </linearGradient>
    <linearGradient id="linearGradient4466">
      <stop id="stop4468" stop-color="#f7f7f7" stop-opacity=".728" offset="0"/>
      <stop id="stop4470" stop-color="#c4c4c4" stop-opacity=".208" offset="1"/>
    </linearGradient>
    <linearGradient id="linearGradient4262">
      <stop id="stop4264" stop-color="#fff" offset="0"/>
      <stop id="stop4266" stop-color="#cfcfcf" offset="1"/>
    </linearGradient>
    <linearGradient id="linearGradient4184">
      <stop id="stop4186" stop-color="#f7f7f7" offset="0"/>
      <stop id="stop4188" stop-color="#c4c4c4" stop-opacity="0" offset="1"/>
    </linearGradient>
    <linearGradient id="linearGradient4049">
      <stop id="stop4051" stop-color="#797979" offset="0"/>
      <stop id="stop4053" stop-color="#b9b9b9" offset="1"/>
    </linearGradient>
    <linearGradient id="linearGradient3969">
      <stop id="stop3971" stop-color="#ececec" offset="0"/>
      <stop id="stop3973" stop-color="#ececec" stop-opacity="0" offset="1"/>
    </linearGradient>
    <linearGradient id="linearGradient5534">
      <stop id="stop5536" offset="0"/>
      <stop id="stop5538" stop-color="#b9b9b9" offset="1"/>
    </linearGradient>
    <linearGradient id="linearGradient5519">
      <stop id="stop5521" stop-color="#ff7f2a" offset="0"/>
      <stop id="stop5523" stop-color="#ffd65c" offset="1"/>
    </linearGradient>
    <linearGradient id="linearGradient5398">
      <stop id="stop5400" stop-color="#969696" stop-opacity=".64516" offset="0"/>
      <stop id="stop5402" stop-color="#6d6d6d" stop-opacity=".53226" offset="1"/>
    </linearGradient>
    <linearGradient id="linearGradient5390">
      <stop id="stop5392" stop-color="#888" stop-opacity=".70161" offset="0"/>
      <stop id="stop5394" stop-color="#040404" stop-opacity=".62097" offset="1"/>
    </linearGradient>
    <linearGradient id="linearGradient5371">
      <stop id="stop5373" stop-color="#ccc" stop-opacity=".71774" offset="0"/>
      <stop id="stop5375" stop-color="#ccc" stop-opacity="0" offset="1"/>
    </linearGradient>
    <linearGradient id="linearGradient5355">
      <stop id="stop5357" stop-color="#ccc" stop-opacity=".60484" offset="0"/>
      <stop id="stop5359" stop-color="#ccc" stop-opacity="0" offset="1"/>
    </linearGradient>
    <linearGradient id="linearGradient3815">
      <stop id="stop3817" stop-color="#b3b3b3" offset="0"/>
      <stop id="stop3819" stop-color="#b3b3b3" stop-opacity="0" offset="1"/>
    </linearGradient>
    <linearGradient id="linearGradient3770">
      <stop id="stop3772" stop-color="#737373" offset="0"/>
      <stop id="stop3774" stop-color="#2f2f2f" offset="1"/>
    </linearGradient>
    <linearGradient id="linearGradient3712">
      <stop id="stop3714" stop-color="#ccc" offset="0"/>
      <stop id="stop3716" stop-color="#ccc" stop-opacity=".52536" offset="1"/>
    </linearGradient>
    <linearGradient id="linearGradient3669">
      <stop id="stop3671" stop-color="#e6e6e6" offset="0"/>
      <stop id="stop3673" stop-color="#e6e6e6" stop-opacity="0" offset="1"/>
    </linearGradient>
    <linearGradient id="linearGradient3661">
      <stop id="stop3663" stop-color="#e6e6e6" stop-opacity=".89516" offset="0"/>
      <stop id="stop3665" stop-color="#e6e6e6" stop-opacity="0" offset="1"/>
    </linearGradient>
    <linearGradient id="linearGradient3602">
      <stop id="stop3604" stop-color="#f2f2f2" stop-opacity=".81452" offset="0"/>
      <stop id="stop3606" stop-color="#f2f2f2" stop-opacity=".0036232" offset="1"/>
    </linearGradient>
    <linearGradient id="linearGradient3572">
      <stop id="stop3574" stop-color="#f2f2f2" offset="0"/>
      <stop id="stop3576" stop-color="#f2f2f2" stop-opacity="0" offset="1"/>
    </linearGradient>
    <linearGradient id="linearGradient3512">
      <stop id="stop3514" stop-color="#f7f7f7" offset="0"/>
      <stop id="stop3516" stop-color="#c4c4c4" offset="1"/>
    </linearGradient>
    <linearGradient id="linearGradient3457">
      <stop id="stop3459" stop-color="#ccc" offset="0"/>
      <stop id="stop3461" stop-color="#ccc" stop-opacity="0" offset="1"/>
    </linearGradient>
    <linearGradient id="linearGradient3425">
      <stop id="stop3427" stop-color="#e6e6e6" stop-opacity=".80645" offset="0"/>
      <stop id="stop3429" stop-color="#e6e6e6" stop-opacity=".36594" offset="1"/>
    </linearGradient>
    <linearGradient id="linearGradient3393">
      <stop id="stop3395" stop-color="#e6e6e6" stop-opacity=".8871" offset="0"/>
      <stop id="stop3397" stop-color="#e6e6e6" stop-opacity="0" offset="1"/>
    </linearGradient>
    <linearGradient id="linearGradient3377">
      <stop id="stop3379" stop-color="#e4e4e4" offset="0"/>
      <stop id="stop3381" stop-color="#e4e4e4" stop-opacity="0" offset="1"/>
    </linearGradient>
    <filter id="filter3588">
      <feGaussianBlur id="feGaussianBlur3590" stdDeviation="9.760037e-07"/>
    </filter>
    <radialGradient id="radialGradient3975" xlink:href="#linearGradient3969" gradientUnits="userSpaceOnUse" cy="436.34" cx="467.31" gradientTransform="matrix(1.8296 -.35675 .28245 1.4486 -510.32 -30.331)" r="31.156"/>
    <radialGradient id="radialGradient4023" gradientUnits="userSpaceOnUse" cy="471.76" cx="376.9" gradientTransform="matrix(1 0 0 .19668 0 378.98)" r="9.2938">
      <stop id="stop4019" stop-color="#ccc" offset="0"/>
      <stop id="stop4021" stop-color="#ccc" stop-opacity="0" offset="1"/>
    </radialGradient>
    <radialGradient id="radialGradient4031" xlink:href="#linearGradient3969" gradientUnits="userSpaceOnUse" cy="482.12" cx="371.88" gradientTransform="matrix(1 0 0 .085382 0 440.95)" r="18.59"/>
    <radialGradient id="radialGradient3709" gradientUnits="userSpaceOnUse" cy="395.56" cx="458.03" gradientTransform="matrix(.81782 -.13005 .068063 .428 60.857 344.16)" r="486.16">
      <stop id="stop3796" stop-color="#1c1c1c" offset="0"/>
      <stop id="stop3798" stop-color="#666" stop-opacity="0" offset="1"/>
    </radialGradient>
    <radialGradient id="radialGradient3953" xlink:href="#linearGradient3512" gradientUnits="userSpaceOnUse" cy="443.43" cx="467.94" gradientTransform="matrix(1 0 0 1.6204 0 -273.98)" r="31.156"/>
    <radialGradient id="radialGradient3957" xlink:href="#linearGradient4049" gradientUnits="userSpaceOnUse" cy="478.28" cx="217.13" gradientTransform="matrix(1 0 0 .11228 0 424.58)" r="16.45"/>
    <radialGradient id="radialGradient3959" xlink:href="#linearGradient4049" gradientUnits="userSpaceOnUse" cy="471.84" cx="224.62" gradientTransform="matrix(1.0539 -.094373 .015330 .17120 -19.347 412.26)" r="11.539"/>
    <linearGradient id="linearGradient3961" y2="497.39" xlink:href="#linearGradient3457" gradientUnits="userSpaceOnUse" x2="295.26" y1="458.81" x1="275.97"/>
    <radialGradient id="radialGradient3963" xlink:href="#linearGradient4262" gradientUnits="userSpaceOnUse" cy="272.11" cx="744.16" gradientTransform="matrix(1 0 0 .96667 0 9.0703)" r="1.65"/>
    <linearGradient id="linearGradient3965" y2="330.87" xlink:href="#linearGradient3770" gradientUnits="userSpaceOnUse" x2="232.4" gradientTransform="translate(-135.56 33.145)" y1="379.73" x1="243.93"/>
    <linearGradient id="linearGradient3967" y2="212.95" gradientUnits="userSpaceOnUse" x2="383.62" y1="230.91" x1="402.67">
      <stop id="stop3479" stop-color="#848484" stop-opacity=".71774" offset="0"/>
      <stop id="stop3481" stop-opacity="0" offset="1"/>
    </linearGradient>
    <linearGradient id="linearGradient3970" y2="457.17" xlink:href="#linearGradient5371" gradientUnits="userSpaceOnUse" x2="185.99" y1="410.69" x1="119.6"/>
    <radialGradient id="radialGradient3972" xlink:href="#linearGradient3377" gradientUnits="userSpaceOnUse" cy="386.28" cx="282.58" gradientTransform="matrix(1.0903 -.11527 .013037 .12331 -30.548 309.63)" r="128.43"/>
    <linearGradient id="linearGradient3974" y2="249.69" xlink:href="#linearGradient5390" gradientUnits="userSpaceOnUse" x2="817.89" y1="246.54" x1="831.46"/>
    <linearGradient id="linearGradient3976" y2="374.83" xlink:href="#linearGradient3770" gradientUnits="userSpaceOnUse" x2="211.37" y1="380.64" x1="211.5"/>
    <linearGradient id="linearGradient3978" y2="293.84" xlink:href="#linearGradient4466" gradientUnits="userSpaceOnUse" x2="443.42" y1="271.12" x1="529.33"/>
    <linearGradient id="linearGradient3980" y2="256.37" xlink:href="#linearGradient3512" gradientUnits="userSpaceOnUse" x2="504.53" y1="271.33" x1="439.28"/>
    <linearGradient id="linearGradient3982" y2="280.32" xlink:href="#linearGradient4049" gradientUnits="userSpaceOnUse" x2="533.74" y1="283.59" x1="529.1"/>
    <linearGradient id="linearGradient3984" y2="268.01" xlink:href="#linearGradient3770" gradientUnits="userSpaceOnUse" x2="497.34" y1="268.01" x1="462.11"/>
    <radialGradient id="radialGradient3986" gradientUnits="userSpaceOnUse" cy="330.56" cx="329.5" gradientTransform="matrix(1.6144 .074153 -.014368 .31281 -197.69 202.72)" r="33.377">
      <stop id="stop3387" stop-color="#e0e0e0" offset="0"/>
      <stop id="stop3389" stop-color="#e0e0e0" stop-opacity="0" offset="1"/>
    </radialGradient>
    <radialGradient id="radialGradient3988" gradientUnits="userSpaceOnUse" cy="378.87" cx="779.57" gradientTransform="matrix(2.8072 -.42663 .054396 .35793 -1435.3 580.47)" r="16.268">
      <stop id="stop3655" stop-color="#e6e6e6" offset="0"/>
      <stop id="stop3657" stop-color="#e6e6e6" stop-opacity="0" offset="1"/>
    </radialGradient>
    <linearGradient id="linearGradient3990" y2="358.28" gradientUnits="userSpaceOnUse" x2="71.631" y1="359.16" x1="51.685">
      <stop id="stop3717" stop-color="#b4b4b4" offset="0"/>
      <stop id="stop3719" stop-color="#b4b4b4" stop-opacity="0" offset="1"/>
    </linearGradient>
    <linearGradient id="linearGradient3992" y2="331.28" gradientUnits="userSpaceOnUse" x2="122.89" y1="376.23" x1="85.559">
      <stop id="stop3809" stop-color="#e6e6e6" offset="0"/>
      <stop id="stop3811" stop-color="#e6e6e6" stop-opacity="0" offset="1"/>
    </linearGradient>
    <linearGradient id="linearGradient3994" y2="376.1" xlink:href="#linearGradient3770" gradientUnits="userSpaceOnUse" x2="170.08" y1="376.24" x1="168.08"/>
    <linearGradient id="linearGradient3996" y2="317.28" xlink:href="#linearGradient3815" gradientUnits="userSpaceOnUse" x2="211.04" y1="361.15" x1="149.35"/>
    <linearGradient id="linearGradient3998" y2="359.42" xlink:href="#linearGradient3770" gradientUnits="userSpaceOnUse" x2="284.7" y1="361.05" x1="264.57"/>
    <linearGradient id="linearGradient4000" y2="346.71" gradientUnits="userSpaceOnUse" x2="133.59" y1="364.03" x1="115.83">
      <stop id="stop3825" stop-color="#ccc" offset="0"/>
      <stop id="stop3827" stop-color="#ccc" stop-opacity="0" offset="1"/>
    </linearGradient>
    <linearGradient id="linearGradient4002" y2="358" gradientUnits="userSpaceOnUse" x2="266.43" y1="358" x1="250.88">
      <stop id="stop5295" stop-color="#ccc" offset="0"/>
      <stop id="stop5297" stop-color="#ccc" stop-opacity="0" offset="1"/>
    </linearGradient>
    <linearGradient id="linearGradient4004" y2="348.17" xlink:href="#linearGradient3770" gradientUnits="userSpaceOnUse" x2="217.66" y1="359.13" x1="215.72"/>
    <linearGradient id="linearGradient4006" y2="231.29" xlink:href="#linearGradient5398" gradientUnits="userSpaceOnUse" x2="800.1" y1="225.71" x1="802.57"/>
    <radialGradient id="radialGradient4008" xlink:href="#linearGradient5355" gradientUnits="userSpaceOnUse" cy="441.03" cx="51.965" gradientTransform="matrix(4.1723 -1.7921 .60153 1.4005 -439.09 -76.23)" r="20.744"/>
    <linearGradient id="linearGradient4010" y2="520.35" xlink:href="#linearGradient3572" spreadMethod="reflect" gradientUnits="userSpaceOnUse" x2="576.77" y1="414.73" x1="563.85"/>
    <radialGradient id="radialGradient4022" xlink:href="#linearGradient3457" gradientUnits="userSpaceOnUse" cy="254.89" cx="588.2" gradientTransform="matrix(-2.0161 .17728 -.0098998 -.11258 1793 258.37)" r="117.26"/>
    <radialGradient id="radialGradient4024" gradientUnits="userSpaceOnUse" cy="328.98" cx="694.44" gradientTransform="matrix(6.3653 -.21508 .011145 .32985 -3729.5 369.83)" r="89.209">
      <stop id="stop3451" stop-color="#ccc" offset="0"/>
      <stop id="stop3453" stop-color="#ccc" stop-opacity="0" offset="1"/>
    </radialGradient>
    <radialGradient id="radialGradient4026" xlink:href="#linearGradient3457" gradientUnits="userSpaceOnUse" cy="324.57" cx="800.58" gradientTransform="matrix(5.7134 -.000011426 .0000025154 1.2813 -3773.5 -91.303)" r="21.363"/>
    <radialGradient id="radialGradient4028" xlink:href="#linearGradient3669" gradientUnits="userSpaceOnUse" cy="384.58" cx="600.62" gradientTransform="matrix(-2.4145 .51997 -.036149 -.16786 2064.7 155.22)" r="22.2"/>
    <radialGradient id="radialGradient4030" xlink:href="#linearGradient3661" gradientUnits="userSpaceOnUse" cy="393.22" cx="688.67" gradientTransform="matrix(3.3369 -.46887 .013164 .093688 -1614.5 679.28)" r="84.481"/>
    <radialGradient id="radialGradient4032" gradientUnits="userSpaceOnUse" cy="288.86" cx="323.25" gradientTransform="matrix(1.8531 -.25736 .027135 .19537 -292.57 317.37)" r="98.779">
      <stop id="stop3419" stop-color="#e6e6e6" offset="0"/>
      <stop id="stop3421" stop-color="#e6e6e6" stop-opacity="0" offset="1"/>
    </radialGradient>
    <radialGradient id="radialGradient4034" xlink:href="#linearGradient3425" gradientUnits="userSpaceOnUse" cy="300.7" cx="307.5" gradientTransform="matrix(.73794 -.061180 .010120 .12207 77.541 282.8)" r="55.75"/>
    <linearGradient id="linearGradient4036" y2="410.5" spreadMethod="reflect" gradientUnits="userSpaceOnUse" x2="968.25" y1="355" x1="943.36">
      <stop id="stop3526" stop-color="#ccc" stop-opacity=".82971" offset="0"/>
      <stop id="stop3528" stop-color="#ccc" stop-opacity="0" offset="1"/>
    </linearGradient>
    <radialGradient id="radialGradient4038" gradientUnits="userSpaceOnUse" cy="270.48" cx="623.95" gradientTransform="matrix(3.4505 -.28732 .021546 .25875 -1541.1 402.8)" r="92.835">
      <stop id="stop3403" stop-color="#e6e6e6" stop-opacity=".83871" offset="0"/>
      <stop id="stop3405" stop-color="#e6e6e6" stop-opacity="0" offset="1"/>
    </radialGradient>
    <radialGradient id="radialGradient4040" gradientUnits="userSpaceOnUse" cy="257.32" cx="786.27" gradientTransform="matrix(3.4917 -.61493 .069748 .39605 -1992.5 665.36)" r="45.172">
      <stop id="stop3411" stop-color="#e6e6e6" stop-opacity=".51613" offset="0"/>
      <stop id="stop3413" stop-color="#e6e6e6" stop-opacity="0" offset="1"/>
    </radialGradient>
    <radialGradient id="radialGradient4042" xlink:href="#linearGradient3393" gradientUnits="userSpaceOnUse" cy="232.28" cx="544.44" gradientTransform="matrix(-2.0143 .25934 -.020887 -.16223 1658.2 194.45)" r="125.44"/>
    <linearGradient id="linearGradient4044" y2="268.4" xlink:href="#linearGradient3572" gradientUnits="userSpaceOnUse" x2="813.77" y1="268.4" x1="768.28"/>
    <radialGradient id="radialGradient4046" gradientUnits="userSpaceOnUse" cy="355.37" cx="479.59" gradientTransform="matrix(.75917 -.0000037725 .0000012803 .25343 114.01 262.64)" r="22.624">
      <stop id="stop3534" stop-color="#e6e6e6" stop-opacity=".75806" offset="0"/>
      <stop id="stop3536" stop-color="#e6e6e6" stop-opacity=".14159" offset="1"/>
    </radialGradient>
    <radialGradient id="radialGradient4048" gradientUnits="userSpaceOnUse" cy="302.35" cx="84.668" gradientTransform="matrix(1.0186 -.17619 .022251 .12864 -8.1153 290)" r="32.283">
      <stop id="stop3435" stop-color="#f2f2f2" offset="0"/>
      <stop id="stop3437" stop-color="#f2f2f2" stop-opacity="0" offset="1"/>
    </radialGradient>
    <radialGradient id="radialGradient4050" gradientUnits="userSpaceOnUse" cy="294.4" cx="203.6" gradientTransform="matrix(2.3964 .092351 -.0090157 .23395 -301.36 224.31)" r="61.294">
      <stop id="stop3369" stop-color="#e4e4e4" offset="0"/>
      <stop id="stop3371" stop-color="#e4e4e4" stop-opacity="0" offset="1"/>
    </radialGradient>
    <radialGradient id="radialGradient4052" xlink:href="#linearGradient3425" gradientUnits="userSpaceOnUse" cy="363.4" cx="161.41" gradientTransform="matrix(-.016189 -.13278 1.3701 -.16704 -342.79 397.32)" r="32.657"/>
    <linearGradient id="linearGradient4054" y2="286.03" xlink:href="#linearGradient3602" gradientUnits="userSpaceOnUse" x2="270.18" y1="256.08" x1="220.21"/>
    <linearGradient id="linearGradient4056" y2="282.64" gradientUnits="userSpaceOnUse" x2="211.33" y1="301.57" x1="223.48">
      <stop id="stop3620" stop-color="#ccc" offset="0"/>
      <stop id="stop3622" stop-color="#ccc" stop-opacity="0" offset="1"/>
    </linearGradient>
    <radialGradient id="radialGradient4058" xlink:href="#linearGradient3602" gradientUnits="userSpaceOnUse" cy="305.13" cx="215.06" gradientTransform="matrix(2.7171 .085581 -.0069417 .22039 -369.78 215.97)" r="17.116"/>
    <radialGradient id="radialGradient4060" xlink:href="#linearGradient3602" gradientUnits="userSpaceOnUse" cy="311.01" cx="-108.13" gradientTransform="matrix(-6.35e-7 .64199 -1.535 .0000015352 621.7 352.56)" r="64.122"/>
    <linearGradient id="linearGradient4062" y2="304.2" xlink:href="#linearGradient3661" gradientUnits="userSpaceOnUse" x2="382.15" y1="281.5" x1="633.89"/>
    <linearGradient id="linearGradient4064" y2="390.14" xlink:href="#linearGradient3815" gradientUnits="userSpaceOnUse" x2="283.51" y1="369.66" x1="349.58"/>
    <radialGradient id="radialGradient4066" xlink:href="#linearGradient3712" gradientUnits="userSpaceOnUse" cy="445.18" cx="362.17" gradientTransform="matrix(.70892 -.61710 .63595 .73057 -177.69 331.96)" r="82.047"/>
    <radialGradient id="radialGradient4068" xlink:href="#linearGradient3669" gradientUnits="userSpaceOnUse" cy="349.53" cx="39.119" gradientTransform="matrix(.89022 .19211 -.54419 2.5217 194.51 -539.4)" r="4.9568"/>
    <radialGradient id="radialGradient4070" xlink:href="#linearGradient3669" gradientUnits="userSpaceOnUse" cy="319.07" cx="72.53" gradientTransform="matrix(.79376 -.27804 .022151 .063237 7.6648 321.34)" r="27.003"/>
    <linearGradient id="linearGradient4072" y2="342.12" xlink:href="#linearGradient3770" gradientUnits="userSpaceOnUse" x2="162.77" y1="342.73" x1="160.33"/>
    <radialGradient id="radialGradient4074" xlink:href="#linearGradient3602" gradientUnits="userSpaceOnUse" cy="-2.515" cx="580.81" gradientTransform="matrix(.94790 .050248 -.017088 .32235 29.574 134.28)" r="174.05"/>
    <linearGradient id="linearGradient4076" y2="519.76" xlink:href="#linearGradient5371" gradientUnits="userSpaceOnUse" x2="162.37" y1="365.28" x1="72.944"/>
    <linearGradient id="linearGradient4078" y2="472.3" xlink:href="#linearGradient5355" gradientUnits="userSpaceOnUse" x2="247.88" y1="414.29" x1="224.15"/>
    <linearGradient id="linearGradient4080" y2="359.04" gradientUnits="userSpaceOnUse" x2="104.39" gradientTransform="matrix(.99802 -.064387 .060563 .93875 -160.21 57.253)" y1="359.04" x1="89.969">
      <stop id="stop5303" stop-color="#ccc" offset="0"/>
      <stop id="stop5305" stop-color="#ccc" stop-opacity="0" offset="1"/>
    </linearGradient>
    <radialGradient id="radialGradient4082" xlink:href="#linearGradient9761" gradientUnits="userSpaceOnUse" cy="359.7" cx="85.446" gradientTransform="matrix(1 0 0 1.4959 0 -178.36)" r="10.804"/>
    <radialGradient id="radialGradient4084" xlink:href="#linearGradient9761" gradientUnits="userSpaceOnUse" cy="426.48" cx="178.12" gradientTransform="matrix(1.3316 .0000010743 -4.1456e-8 .051403 -59.498 385.62)" r="152.78"/>
    <radialGradient id="radialGradient4086" gradientUnits="userSpaceOnUse" cy="402.47" cx="366.42" gradientTransform="matrix(.81325 -.19361 .027354 .11490 57.42 427.16)" r="38.97">
      <stop id="stop5470" stop-color="#999" offset="0"/>
      <stop id="stop5472" stop-color="#999" stop-opacity="0" offset="1"/>
    </radialGradient>
    <radialGradient id="radialGradient4088" xlink:href="#linearGradient9761" gradientUnits="userSpaceOnUse" cy="460.97" cx="344.63" gradientTransform="matrix(1 -.10266 .0088678 .086377 -4.0216 409.5)" r="66.254"/>
    <radialGradient id="radialGradient4090" xlink:href="#linearGradient5534" gradientUnits="userSpaceOnUse" cy="438.32" cx="329.94" gradientTransform="matrix(1.3514 .19724 -.34776 .86397 36.505 -5.4539)" r="9.4269"/>
    <radialGradient id="radialGradient4092" xlink:href="#linearGradient5398" gradientUnits="userSpaceOnUse" cy="433.19" cx="320.51" gradientTransform="matrix(.74864 .57994 -1.1449 .52013 578.76 21.55)" r="9.6144"/>
    <radialGradient id="radialGradient4094" xlink:href="#linearGradient5519" gradientUnits="userSpaceOnUse" cy="442.78" cx="337.16" gradientTransform="matrix(1.8958 -.16772 .16977 1.919 -377.2 -350.37)" r="5.6858"/>
    <linearGradient id="linearGradient4096" y2="434.55" xlink:href="#linearGradient5534" gradientUnits="userSpaceOnUse" x2="346.06" y1="444.48" x1="328.25"/>
    <linearGradient id="linearGradient4098" y2="250.59" xlink:href="#linearGradient3377" gradientUnits="userSpaceOnUse" x2="786.72" y1="179.98" x1="835.51"/>
    <radialGradient id="radialGradient4100" xlink:href="#linearGradient3712" gradientUnits="userSpaceOnUse" cy="584.75" cx="378.15" gradientTransform="matrix(2.1792 -.23332 .016941 .15823 -469.46 202.58)" r="116.81"/>
    <radialGradient id="radialGradient4102" xlink:href="#linearGradient5519" gradientUnits="userSpaceOnUse" cy="436.74" cx="58.253" gradientTransform="matrix(1 0 0 1.7639 0 -333.64)" r="4.4233"/>
    <radialGradient id="radialGradient4104" xlink:href="#linearGradient3512" gradientUnits="userSpaceOnUse" cy="278.91" cx="769.49" gradientTransform="matrix(1 -.0000021720 3.9193e-7 .18050 -.026082 235.77)" r="14.43"/>
    <radialGradient id="radialGradient4106" xlink:href="#linearGradient3512" gradientUnits="userSpaceOnUse" cy="290.41" cx="783.72" gradientTransform="matrix(-1 -.0000081576 .0000076988 -.94376 1564.4 564.49)" r="3.283"/>
    <radialGradient id="radialGradient4108" xlink:href="#linearGradient3512" gradientUnits="userSpaceOnUse" cy="291.94" cx="777.3" gradientTransform="matrix(.61376 .28882 -.49129 1.044 443.65 -237.47)" r="3.0469"/>
    <linearGradient id="linearGradient4110" y2="278.71" gradientUnits="userSpaceOnUse" x2="663.36" y1="273.6" x1="790.63">
      <stop id="stop3747" stop-color="#fff" offset="0"/>
      <stop id="stop3749" stop-color="#ececec" stop-opacity=".42765" offset="1"/>
    </linearGradient>
    <radialGradient id="radialGradient4112" xlink:href="#linearGradient4262" gradientUnits="userSpaceOnUse" cy="262.18" cx="652.5" gradientTransform="matrix(.53955 .011391 -.013909 .68729 304.09 74.756)" r="13.978"/>
    <linearGradient id="linearGradient4114" y2="274.55" spreadMethod="reflect" gradientUnits="userSpaceOnUse" x2="648.53" y1="273.77" x1="647.17">
      <stop id="stop4474" stop-color="#c4c4c4" offset="0"/>
      <stop id="stop4476" stop-color="#efefef" offset="1"/>
    </linearGradient>
    <linearGradient id="linearGradient4116" y2="246.52" gradientUnits="userSpaceOnUse" x2="666" y1="250.43" x1="646.69">
      <stop id="stop4272" stop-color="#f7f7f7" stop-opacity=".50806" offset="0"/>
      <stop id="stop4274" stop-color="#fff" offset="1"/>
    </linearGradient>
    <linearGradient id="linearGradient4118" y2="256.46" gradientUnits="userSpaceOnUse" x2="667.92" gradientTransform="matrix(.98780 0 0 .97484 7.9898 6.5761)" y1="270.93" x1="656.74">
      <stop id="stop4426" stop-color="#f7f7f7" offset="0"/>
      <stop id="stop4428" stop-color="#a7a7a7" offset="1"/>
    </linearGradient>
    <radialGradient id="radialGradient4120" xlink:href="#linearGradient4505" gradientUnits="userSpaceOnUse" cy="384.08" cx="50.865" gradientTransform="matrix(2.3732 .064472 -.0096009 .35340 -66.922 250.4)" r="15.372"/>
    <radialGradient id="radialGradient4122" xlink:href="#linearGradient4466" gradientUnits="userSpaceOnUse" cy="392.5" cx="100.01" gradientTransform="matrix(1 0 0 .16574 0 327.45)" r="14.2"/>
    <radialGradient id="radialGradient4124" xlink:href="#linearGradient4505" gradientUnits="userSpaceOnUse" cy="391.52" cx="133.9" gradientTransform="matrix(1 0 0 .37103 0 246.25)" r="5.8642"/>
    <radialGradient id="radialGradient4126" xlink:href="#linearGradient4184" gradientUnits="userSpaceOnUse" cy="423.38" cx="59.342" gradientTransform="matrix(1 0 0 .50960 0 207.63)" r="3.6776"/>
    <radialGradient id="radialGradient4128" xlink:href="#linearGradient4184" gradientUnits="userSpaceOnUse" cy="425.69" cx="106.79" gradientTransform="matrix(1 0 0 .32534 0 287.2)" r="16.45"/>
    <radialGradient id="radialGradient4130" xlink:href="#linearGradient4184" gradientUnits="userSpaceOnUse" cy="425.69" cx="106.79" gradientTransform="matrix(1.3987 -8.992e-7 2.075e-7 .32277 -42.578 288.29)" r="16.387"/>
    <linearGradient id="linearGradient4132" y2="218.39" xlink:href="#linearGradient3641" gradientUnits="userSpaceOnUse" x2="635.57" y1="216.19" x1="630.79"/>
    <radialGradient id="radialGradient4134" xlink:href="#linearGradient3641" gradientUnits="userSpaceOnUse" cy="257.29" cx="612.64" gradientTransform="matrix(1.5751 .74577 -.62711 1.3245 -190.98 -540.9)" r="16.015"/>
    <linearGradient id="linearGradient4136" y2="357.38" xlink:href="#linearGradient3393" gradientUnits="userSpaceOnUse" x2="361.29" gradientTransform="matrix(.85829 0 0 .97097 51.194 11.153)" y1="357.38" x1="312.94"/>
    <linearGradient id="linearGradient4138" y2="346.99" xlink:href="#linearGradient3393" gradientUnits="userSpaceOnUse" x2="352.4" y1="347.44" x1="351.89"/>
    <radialGradient id="radialGradient4140" xlink:href="#linearGradient5390" gradientUnits="userSpaceOnUse" cy="350.78" cx="353.26" gradientTransform="matrix(.75157 .65965 -.67887 .77346 325.89 -155.91)" r="13.125"/>
    <linearGradient id="linearGradient4142" y2="361.47" xlink:href="#linearGradient3457" gradientUnits="userSpaceOnUse" x2="359.34" y1="361.47" x1="319.84"/>
    <radialGradient id="radialGradient4144" xlink:href="#linearGradient9761" gradientUnits="userSpaceOnUse" cy="459.09" cx="286.11" gradientTransform="matrix(.75852 -.39910 1.2159 2.3108 -489.1 -481.18)" r="16.586"/>
    <radialGradient id="radialGradient4146" gradientUnits="userSpaceOnUse" cy="476.38" cx="-62.644" gradientTransform="matrix(-.19112 -2.1452 2.6873 -.23941 -1313.7 473.41)" r="17.866">
      <stop id="stop9784" offset="0"/>
      <stop id="stop9786" stop-opacity="0" offset="1"/>
    </radialGradient>
  </defs>
  <g id="layer1" transform="translate(127.23 -201.83)">
    <g id="g3759" transform="translate(19.912 19.912)">
      <path id="path3792" d="m11.41 518.7l409.66 7.16 562.66-71.97-381.38 1.03-590.94 63.78z" fill="url(#radialGradient3709)" transform="translate(-138.64 30.505)" fill-rule="evenodd"/>
      <path id="path3788" d="m200.99 476.24c11.16 0.88 34.92 8.07 33.45 2.64 1.14-0.93 2.28-1.04 3.42-0.31 1.23 11.81 8.62 12.38 16.8 11.51 0.51 4.1 13.84 3.71 14.47 1.56l56.16 0.62c1.93 1.48 4.19 1.93 6.53 2.18l14.47-0.16c0.72-0.04 1.26-0.31 1.4-1.09 6.28-0.7 13.77 1.39 18.82-2.18 8.48 1.95 13.1-1.32 16.18-6.68l8.24-0.45-7.77-27.4-95.67 7.78-88.83 0.93 2.33 11.05z" fill-rule="evenodd" transform="translate(-138.64 30.505)" stroke="#000" stroke-width=".125" fill="#1a1a1a"/>
      <path id="path3514" d="m488.94 358.34c-22.33 0.15-36.79 10.02-47.56 24.44l-0.04 1.22c8.75-13.33 20.57-21.5 33.57-21.5 26.92 0 48.78 35.09 48.78 78.34 0 7.42-0.65 14.58-1.85 21.38l0.25-0.06c0.38-0.89 0.68-1.85 0.6-3.19l6.59 0.47c3.03-0.06 6.16-2.92 6.78-7.5 0.29-3.35 0.83-9.53 0.78-17.19-0.16-25.03-6.54-65.98-47.9-76.41z" fill-rule="evenodd" transform="translate(-138.64 30.505)" stroke="#000" stroke-width=".125" fill="#333"/>
      <path id="path3519" d="m879.09 319.44c-14.67 1.59-24.14 7.7-30.87 16.18 41.14-16.34 42.74 40.89 53.72 58.26l3.53 0.81 0.41-0.31-0.16-6.19c7.03-35.99-4.31-61.58-26.63-68.75z" fill-rule="evenodd" transform="translate(-138.64 30.505)" stroke="#000" stroke-width=".125" fill="#333"/>
      <path id="path3822" d="m354.22 480.9c-1.24 0.83-1.24 1.77 0 2.8 9.64-1.13 24.13-1.15 36.25-1.71l-1.09-1.4c-11.72 0.1-23.44-0.36-35.16 0.31z" fill="url(#radialGradient4031)" transform="translate(-138.64 30.505)" fill-rule="evenodd"/>
      <path id="path4014" d="m368.22 471.34l17.51-1.4 0.46 2.1-17.65 1.55c-1.29-0.52-1.1-1.32-0.32-2.25z" fill="url(#radialGradient4023)" transform="translate(-138.64 30.505)" fill-rule="evenodd"/>
      <g id="g3736" transform="translate(-138.64 30.505)">
        <path id="path3488" stroke-linejoin="round" d="m474.38 382.16c20.81 0 37.68 26.66 37.68 59.5 0 32.83-16.87 59.46-37.68 59.46-20.82 0-37.72-26.63-37.72-59.46 0-32.84 16.9-59.5 37.72-59.5z" stroke="#000" stroke-linecap="round" stroke-width=".13044" fill="none"/>
        <path id="path3627" stroke-linejoin="round" d="m472.04 385.83c19.53 0 35.36 25.02 35.36 55.83 0 30.8-15.83 55.79-35.36 55.79s-35.39-24.99-35.39-55.79c0-30.81 15.86-55.83 35.39-55.83z" stroke="#000" stroke-linecap="round" stroke-width=".12238" fill="#b3b3b3"/>
        <path id="path3647" stroke-linejoin="round" d="m474.91 362.5c-26.92 0-48.79 35.09-48.79 78.34 0 43.26 21.87 78.38 48.79 78.38s48.78-35.12 48.78-78.38c0-43.25-21.86-78.34-48.78-78.34zm-0.53 19.66c20.81 0 37.68 26.66 37.68 59.5 0 32.83-16.87 59.46-37.68 59.46-20.82 0-37.72-26.63-37.72-59.46 0-32.84 16.9-59.5 37.72-59.5z" stroke="#000" stroke-linecap="round" stroke-width=".13044"/>
        <path id="path3616" stroke-linejoin="round" d="m474.38 382.16c20.81 0 37.68 26.66 37.68 59.5 0 32.83-16.87 59.46-37.68 59.46-20.82 0-37.72-26.63-37.72-59.46 0-32.84 16.9-59.5 37.72-59.5z" stroke="#000" stroke-linecap="round" stroke-width=".13044" fill="#ececec"/>
        <path id="path3558" d="m521.74 445.81a47.804 73.413 0 1 1 -95.6 0 47.804 73.413 0 1 1 95.6 0z" fill="#b3b3b3" transform="matrix(.69837 0 0 .73742 139.24 112.91)"/>
        <path id="path3490" stroke-linejoin="round" d="m474.34 362.5l-47.5 0.22c-25.2 3.03-45.09 36.86-45.09 78.12 0 43.26 21.86 75.97 48.78 75.97l43.94 2.5c-0.08-0.04-0.15-0.08-0.22-0.12-26.61-0.57-48.13-35.45-48.13-78.35 0-42.95 21.57-77.85 48.22-78.34z" stroke="#000" stroke-linecap="round" stroke-width=".13044" fill="none"/>
        <path id="path3643" d="m521.74 445.81a47.804 73.413 0 1 1 -95.6 0 47.804 73.413 0 1 1 95.6 0z" fill="#666" transform="matrix(.59273 0 0 .62587 189.08 162.64)"/>
        <path id="path3639" stroke-linejoin="round" d="m474.34 362.5l-47.5 0.22c-25.2 3.03-45.09 36.86-45.09 78.12 0 43.26 21.86 75.97 48.78 75.97l43.94 2.5c-0.08-0.04-0.15-0.08-0.22-0.12-26.61-0.57-48.13-35.45-48.13-78.35 0-42.95 21.57-77.85 48.22-78.34z" stroke="#000" stroke-linecap="round" stroke-width=".13044"/>
        <g id="g3629">
          <path id="path3560" d="m467.94 391.22c-16.09 0-29.35 19.86-30.94 45.28-0.05 0.85-0.1 1.7-0.12 2.56-0.03 0.86-0.04 1.73-0.04 2.6s0.01 1.73 0.04 2.59c0.02 0.86 0.07 1.72 0.12 2.56 1.59 25.42 14.85 45.25 30.94 45.25 17.16 0 31.09-22.57 31.09-50.4 0-27.84-13.93-50.44-31.09-50.44zm3.09 6.69c1.28 0.05 2.53 0.36 3.75 0.93l-2.94 14.64-4.72-14.95c1.26-0.53 2.58-0.58 3.91-0.62zm-6.3 1.41l4.39 15.74c1.33 4.4-3.91 5.44-4.93 2.53l-3.7-15.37c1.54-1.9 2.31-2.3 4.24-2.9zm12.96 0.65c1.48-0.02 2.64 1.38 3.4 2.65l-1.03 13.22c-0.14 4.59-4.95 3.93-5 0.85l1.56-16.47c0.38-0.17 0.72-0.25 1.07-0.25zm-19.47 3.84l3.66 15.26-9.44-8.76c1.6-2.33 3.28-4.62 5.78-6.5zm25.28 0.35c2.22 1.08 3.86 3.6 5.62 6.28l-6.65 8.16 1.03-14.44zm-32.92 8.21l9.42 8.88c4.03 3.73-0.23 10.12-4.62 6.13l-8.38-7.76c0.69-2.8 1.93-4.96 3.58-7.25zm39.58 1.51c2.08 0.77 2.63 3.9 2.18 5.68l-5.59 9.13c-3.34 3.15-4.7-5.53-2.56-7.75l5.97-7.06zm-43.88 7.87l9.45 10.6-11.82 0.84c-0.29-1.2 1.92-11.78 2.37-11.44zm47.97 1.19c1.67 3.36 1.43 6.53 1.19 10.31l-8.29-0.49 7.1-9.82zm-28.37 0.97c3.57 4.43-1.06 8.7-2.79 7.84 0.48-2.57 0.9-5.12 2.79-7.84zm11.74 0.31c0.81-0.02 1.59 0.23 2.26 0.78 2.61 2.16-3.22 10.36-6.54 5.41-0.64-3.72 1.88-6.13 4.28-6.19zm-8.12 6.31c2.87 0 5.19 4.38 5.19 9.78s-2.32 9.78-5.19 9.78-5.19-4.38-5.19-9.78 2.32-9.78 5.19-9.78zm19.03 5.38c0.08-0.01 0.17-0.01 0.25 0l6.81 0.09c0.62 1.03 0.67 6.42 0.5 8.12l-6.87 0.41c-4.39 0.07-3.24-8.41-0.69-8.62zm-33.53 0.5c3.45 0.06 3.48 8.95-0.34 8.87l-11.28-0.16 0.12-8.31 11.5-0.4zm24.91 5.37c2.19-0.07 4.41 1.83 3.28 5.06-1.81 5.18-7.95 1.63-6.47-2.65 0.55-1.61 1.87-2.36 3.19-2.41zm-19.53 0.22c3.83 0.45 3.77 5.43-0.07 6.41-0.14-2.38-0.45-4.1 0.07-6.41zm35.74 5.53c-0.69 3.49-1.44 6.93-2.81 9.97l-6.1-9.32 8.91-0.65zm-52.21 0.5l11.42 0.65s-9.28 9.82-9.89 10.79c-0.67 1.06-2.41-11.26-1.53-11.44zm42.28 3.53c0.19 0 0.41 0.02 0.62 0.06l5.53 8.97c-0.23 1.89-1.64 4.38-2.75 6.25l-5.81-6.43c-1.68-2.82-0.55-8.76 2.41-8.85zm-28.81 0.38c2.91 0.09 4.06 6.13 2.06 7.68l-10.1 9.07-2.9-5.97 9.56-10.44c0.48-0.26 0.96-0.36 1.38-0.34zm11.9 0c2.72-0.13 4.65 6.8 3.03 7.44-1.8 0.7-7.05-5.24-3.9-7.16 0.29-0.18 0.59-0.27 0.87-0.28zm8.1 9.9c0.64 0 1.26 0.29 1.71 0.91l0.5 15.37c-0.74 1.38-3.1 2.65-4.47 2.91l-1.12-15.65c0.41-2.19 1.96-3.54 3.38-3.54zm-11.6 0.54c2-0.01 3.94 2.72 2.5 6.56l-5.44 13.03c-1.73-0.69-3.26-1.54-4.09-2.91l4.59-14.84c0.63-1.27 1.53-1.84 2.44-1.84zm15.84 1.68l6.07 5.56c-1.11 2.81-3.26 4.74-5.72 6.41l-0.35-11.97zm-21.24-0.97l-3.69 14.97c-2.23-1.87-4.42-3.79-5.97-7l9.66-7.97zm10.84 6.53l2.22 12.04c-2.42 1.45-5.05 1.09-7.69 0.53 0 0 5.47-11.88 5.47-12.57z" fill="url(#radialGradient3975)"/>
          <path id="path3433" d="m465.63 446.47l3.14 2.66c2.59-3.93 4.16-8.55 4.83-13.76l-3.26-2.78c-1.24 4.85-2.53 9.66-4.71 13.88z" fill="#e6e6e6" fill-rule="evenodd"/>
        </g>
      </g>
      <path id="path3751" stroke-linejoin="round" d="m864.54 343.38c17.21 0 31.15 24.29 31.15 54.21s-13.94 54.18-31.15 54.18c-17.2 0-31.17-24.26-31.17-54.18s13.97-54.21 31.17-54.21z" transform="translate(-138.64 30.505)" stroke="#000" stroke-linecap="round" stroke-width=".1132" fill="none"/>
      <path id="path3753" stroke-linejoin="round" d="m862.61 346.72c16.14 0.01 29.23 22.8 29.23 50.87s-13.09 50.83-29.23 50.83-29.25-22.76-29.25-50.83 13.11-50.87 29.25-50.87z" transform="translate(-138.64 30.505)" stroke="#000" stroke-linecap="round" stroke-width=".1062" fill="none"/>
      <path id="path3755" stroke-linejoin="round" d="m864.98 325.47c-22.25 0-40.32 31.97-40.32 71.38s18.07 71.41 40.32 71.41 40.32-32 40.32-71.41-18.07-71.38-40.32-71.38zm-0.44 17.91c17.21 0 31.15 24.29 31.15 54.21s-13.94 54.18-31.15 54.18c-17.2 0-31.17-24.26-31.17-54.18s13.97-54.21 31.17-54.21z" transform="translate(-138.64 30.505)" stroke="#000" stroke-linecap="round" stroke-width=".1132"/>
      <path id="path3757" stroke-linejoin="round" d="m864.54 343.38c17.21 0 31.15 24.29 31.15 54.21s-13.94 54.18-31.15 54.18c-17.2 0-31.17-24.26-31.17-54.18s13.97-54.21 31.17-54.21z" transform="translate(-138.64 30.505)" stroke="#000" stroke-linecap="round" stroke-width=".1132" fill="#ececec"/>
      <path id="path3759" stroke-linejoin="round" d="m521.74 445.81a47.804 73.413 0 1 1 -95.6 0 47.804 73.413 0 1 1 95.6 0z" transform="matrix(.57725 0 0 .67189 448.89 128.56)" stroke="#000" stroke-linecap="round" stroke-width=".125" fill="#b3b3b3"/>
      <path id="path3761" stroke-linejoin="round" d="m864.52 325.47l-39.26 0.2c-20.83 2.76-37.28 33.58-37.28 71.18 0 39.41 18.07 69.22 40.32 69.22l36.32 2.27c-0.06-0.03-0.12-0.07-0.18-0.11-22-0.52-39.78-32.29-39.78-71.38 0-39.14 17.82-70.94 39.86-71.38z" transform="translate(-138.64 30.505)" stroke="#000" stroke-linecap="round" stroke-width=".1132" fill="none"/>
      <path id="path3763" stroke-linejoin="round" d="m864.52 325.47l-39.26 0.2c-20.83 2.76-37.28 33.58-37.28 71.18 0 39.41 18.07 69.22 40.32 69.22l36.32 2.27c-0.06-0.03-0.12-0.07-0.18-0.11-22-0.52-39.78-32.29-39.78-71.38 0-39.14 17.82-70.94 39.86-71.38z" transform="translate(-138.64 30.505)" stroke="#000" stroke-linecap="round" stroke-width=".1132"/>
      <path id="path3765" stroke-linejoin="round" d="m521.74 445.81a47.804 73.413 0 1 1 -95.6 0 47.804 73.413 0 1 1 95.6 0z" transform="matrix(.48992 0 0 .57025 490.09 173.87)" stroke="#000" stroke-linecap="round" stroke-width=".125" fill="#666"/>
      <g id="g3767" stroke="#000" transform="matrix(.82656 0 0 .91114 333.8 25.685)">
        <path id="path3769" stroke-linejoin="round" d="m467.94 391.22c-16.09 0-29.35 19.86-30.94 45.28-0.05 0.85-0.1 1.7-0.12 2.56-0.03 0.86-0.04 1.73-0.04 2.6s0.01 1.73 0.04 2.59c0.02 0.86 0.07 1.72 0.12 2.56 1.59 25.42 14.85 45.25 30.94 45.25 17.16 0 31.09-22.57 31.09-50.4 0-27.84-13.93-50.44-31.09-50.44zm2.12 6.69c0.32-0.02 0.65-0.02 0.97 0 1.28 0.05 2.53 0.36 3.75 0.93l-2.72 12.66-4.94-12.97c1.01-0.34 1.98-0.56 2.94-0.62zm-5 1.97l4.06 15.18c1.33 4.4-3.91 5.44-4.93 2.53l-3.53-15.37c1.27-1.76 1.93-2.19 4.4-2.34zm12.63 0.09c1.48-0.02 2.64 1.38 3.4 2.65l-1.03 13.22c-0.14 4.59-4.95 3.93-5 0.85l1.56-16.47c0.38-0.17 0.72-0.25 1.07-0.25zm-19.47 3.84l2.56 13.5-8.34-7c1.6-2.33 3.28-4.62 5.78-6.5zm25.28 0.35c2.22 1.08 3.86 3.6 5.62 6.28l-6.43 7.06 0.81-13.34zm-32.59 8.87l9.09 8.22c4.03 3.73-0.23 10.12-4.62 6.13l-8.38-7.76c0.69-2.8 2.26-4.74 3.91-6.59zm39.25 0.85c2.08 0.77 2.63 3.9 2.18 5.68l-5.59 9.13c-3.34 3.15-4.7-5.53-2.56-7.75l5.97-7.06zm-43.88 7.87l7.69 9.72-10.06 1.72c-0.29-1.2 1.92-11.78 2.37-11.44zm47.97 1.19c1.67 3.36 1.43 6.53 1.19 10.31l-7.41-1.37 6.22-8.94zm-28.37 0.97c3.57 4.43-1.06 8.7-2.79 7.84 0.48-2.57 0.9-5.12 2.79-7.84zm11.74 0.31c0.81-0.02 1.59 0.23 2.26 0.78 2.61 2.16-3.22 10.36-6.54 5.41-0.64-3.72 1.88-6.13 4.28-6.19zm-8.12 6.31c2.87 0 5.19 4.38 5.19 9.78s-2.32 9.78-5.19 9.78-5.19-4.38-5.19-9.78 2.32-9.78 5.19-9.78zm19.03 5.38c0.08-0.01 0.17-0.01 0.25 0l6.81 0.09c0.62 1.03 0.67 6.42 0.5 8.12l-6.87 0.41c-4.39 0.07-3.24-8.41-0.69-8.62zm-33.53 0.5c3.45 0.06 3.48 8.95-0.34 8.87l-11.28-0.16 0.12-8.31 11.5-0.4zm24.91 5.37c2.19-0.07 4.41 1.83 3.28 5.06-1.81 5.18-7.95 1.63-6.47-2.65 0.55-1.61 1.87-2.36 3.19-2.41zm-19.53 0.22c3.83 0.45 3.77 5.43-0.07 6.41-0.14-2.38-0.45-4.1 0.07-6.41zm35.74 5.53c-0.69 3.49-1.44 6.93-2.81 9.97l-4.78-8.88 7.59-1.09zm-52.21 0.5l9.21 1.53s-7.07 8.94-7.68 9.91c-0.67 1.06-2.41-11.26-1.53-11.44zm42.28 3.53c0.19 0 0.41 0.02 0.62 0.06l5.53 8.97c-0.23 1.89-1.64 4.38-2.75 6.25l-5.81-6.43c-1.68-2.82-0.55-8.76 2.41-8.85zm-28.81 0.38c2.91 0.09 4.06 6.13 2.06 7.68l-10.1 9.07-2.9-5.97 9.56-10.44c0.48-0.26 0.96-0.36 1.38-0.34zm11.9 0c2.72-0.13 4.65 6.8 3.03 7.44-1.8 0.7-7.05-5.24-3.9-7.16 0.29-0.18 0.59-0.27 0.87-0.28zm8.1 9.9c0.64 0 1.26 0.29 1.71 0.91l0.5 15.37c-0.74 1.38-3.1 2.65-4.47 2.91l-1.12-15.65c0.41-2.19 1.96-3.54 3.38-3.54zm-11.6 0.54c2-0.01 3.94 2.72 2.5 6.56l-5.44 13.03c-1.73-0.69-3.26-1.54-4.09-2.91l4.59-14.84c0.63-1.27 1.53-1.84 2.44-1.84zm15.84 1.68l6.07 5.56c-1.11 2.81-3.26 4.74-5.72 6.41l-0.35-11.97zm-21.68 0.35l-3.25 13.65c-2.23-1.87-4.42-3.79-5.97-7l9.22-6.65zm10.4 5.65l3.1 11.6c-2.42 1.45-5.05 1.09-7.69 0.53 0 0 4.59-11.44 4.59-12.13z" stroke-linecap="round" stroke-width=".083552" fill="url(#radialGradient3953)"/>
        <path id="path3771" d="m465.63 446.47l3.14 2.66c2.59-3.93 4.16-8.55 4.83-13.76l-3.26-2.78c-1.24 4.85-2.53 9.66-4.71 13.88z" stroke-width=".125" fill="#fff" fill-rule="evenodd"/>
      </g>
      <path id="path3784" d="m105.38 454.88c9.39 28.25 15.66 47.76 44.66 53.68 21.96 1.39 47.97-1.68 49.98-3.03 16.07-7.26 23.52-23.28 33.19-41.41l-127.83-9.24z" fill-rule="evenodd" transform="translate(-138.64 30.505)" stroke="#000" stroke-width=".125" fill="#1a1a1a"/>
      <path id="path3786" d="m170.19 476.08l2.54 1.31c9.03 13.58 25.47 7.69 29.51 2.05 1.2-1.68 3.34-0.69 3.34 0.37-10.6 13.58-34.17 8.06-35.39-3.73z" fill="#808080" transform="translate(-138.64 30.505)" fill-rule="evenodd"/>
      <path id="path3790" d="m552.65 457.08l7.04 3.52 3.52 1.32c42.37-3.75 77.21-8.73 111.96-14.24 1.56-0.52 3.23-0.93 4.2-2.04 8.88-2.89 19.21-3.47 29.04-4.84 0.52 1.21 2.05 2.07 3.37 1.5 3.68-0.9 1.67 2.19 2.89 3.75 1.51 0.8 2.73 0.12 3.82-0.74 2.27-0.32 4.39-0.52 5.43 0.19 1.88 1.38 2.76 0.52 3.85 0.14 1.85-1.1 1.68-3.93 2.2-6.16 4.94-1.69 9.11-4.44 14.96-4.84 18.18-1.47 34.32-5.92 51.48-7.48l-5.28-13.64-238.48 43.56z" fill-rule="evenodd" transform="translate(-138.64 30.505)" stroke="#000" stroke-width=".125" fill="#1a1a1a"/>
      <path id="path3818" d="m200.68 477.79c5.3-2.84 19.65-0.31 30.34-0.47 3.16-0.09 4.13 2.91-1.41 2.8l-28.93-2.33z" fill="url(#radialGradient3957)" transform="translate(-138.64 30.505)" fill-rule="evenodd"/>
      <path id="path3820" d="m217.33 469.86c-0.74 0.98-1.71 1.97 0.77 2.95 3.44 1.34 5.84 1.06 8.87 0.78 2.41-1.75 6.3-2.86 12.45-2.95 1.97-0.95-13.77-0.58-22.09-0.78z" fill="url(#radialGradient3959)" transform="translate(-138.64 30.505)" fill-rule="evenodd"/>
      <path id="path4808" opacity=".85507" d="m757.69 253.79l-121 2.65c-38.82-15.1-77.65-30.3-117.04-48.85 75.83-3.18 151.65-2.87 227.48-3.96l14.96 12.76-4.4 37.4z" fill-rule="evenodd" transform="translate(-138.64 30.505)" fill="#e6e6e6"/>
      <path id="path4843" d="m651.22 177.69l-148.72 5.28-110 14.94-68.66 71.28 92.41 14.97 167.19-11.44 58.09-20.25-102.09-42.22 218.25-9.69-106.47-22.87zm-254.84 25.84c35.76 1.78 71.93 3.03 98.02 17.72 5.5 2.79 7.71 12.97 7.47 14.94l-1.58 40.15-135.01-6.22 31.1-66.59zm-16.18 23.02l-19.29 42.95-21.79-3.75 41.08-39.2z" fill="#b3b3b3" transform="translate(-138.64 30.505)" fill-rule="evenodd"/>
      <path id="path5982" d="m50.893 321.04c3.264-2.16 9.367-5.48 11.973-5.71l35.527-5.54 65.357-7.5 24.11-1.97c14.99-10.21 29.67-20.92 49.28-23.75l90.18-10.36 58.57-61.96c-0.94-0.46-1.02-1.21-0.53-2.14 39.75-23.07 89.13-25 134.82-28.75 34.65-2.06 66.97-1.39 100.36-1.97 45.9-0.25 88.4 9.26 128.92 24.47 44.01 17.34 81.02 39.57 113.93 64.64l93.22 3.04c5.69 1.18 6.11 3.18 7.68 5 6.24 13.96 6.94 29.2 9.1 44.1h1.25l-0.35 8.57c-4.11 26.69-25.21 41.32-38.58 61.43l-29.82 12.68-0.18-7.14c7.04-35.99-4.28-61.58-26.6-68.75-46.33 5.02-40.81 54.99-60.76 82.88-4.23 10.59-30.24 17.17-51.56 24.62l-78.58 10.71-166.78 26.07c0.51-1.48 1.39-2.6 1.25-4.73l6.61 0.45c3.03-0.06 6.16-2.92 6.78-7.5 1.22-14.27 6.88-79.95-47.14-93.57-51.79 0.33-61.18 53.03-80.72 93.21l-42.91 11.09c-9.33 1.55-18.68 3.08-31.95 2.66l-79.62 2.94-115.97-1.81c-8.6-3.74-17.99-4.3-27.4-4.8-12.351-0.77-63.394-5.62-65.661-44.06l3.788-21.15c0.205-0.96-0.04-2.67 0.632-2.84l4.293-0.89c0.336-1.23-0.076-4.99-0.884-5.68-6.213-4.43-13.943-6.67-17.358-17.93-4.694-15.69-5.829-28.24 0.546-35.72 4.191-3.95 8.608-8.36 15.177-12.34z" transform="translate(-138.64 30.505)" stroke="#000" stroke-width=".125" fill="none"/>
      <path id="path4411" d="m275.97 490.08l38.58 0.93-6.53-12.13h-18.67l-13.38 11.2z" fill="url(#linearGradient3961)" transform="translate(-138.64 30.505)" fill-rule="evenodd"/>
      <path id="path4810" d="m602.35 274.47l14-26.76 22.4 9.96 131.3-4.05-3.11 28-163.97 6.54-0.62-13.69z" fill-rule="evenodd" transform="translate(-138.64 30.505)" stroke="#000" stroke-width=".125" fill="#501616"/>
      <path id="path4817" d="m485.11 268.89c5.59-13.03 12.11-16.32 16.77-37.84l-5.59 40.47-11.18-2.63z" fill="#fff" transform="translate(-138.64 30.505)" fill-rule="evenodd"/>
      <path id="path4805" d="m425.05 270.96c55.97-1.38 110.8-6.84 168.08-3.52l-7.48 13.2-160.6-9.68z" fill="#500" transform="translate(-138.64 30.505)" fill-rule="evenodd"/>
      <path id="path4831" d="m587.19 268.32l3.96-5.5c-22.92-14.87-43.96-15.14-59.02 5.6 1.2-0.65 4.68 0.03 5.64-0.79 15.93-13.53 27-16.16 49.42 0.69z" fill-rule="evenodd" transform="translate(-138.64 30.505)" stroke="#000" stroke-width=".125" fill="#840000"/>
      <path id="path4851" d="m697.19 279.98c0.45-3.33-9.42-9.8-12.1-9.46l-82.94 0.88-5.28 10.34 100.32-1.76z" fill-rule="evenodd" transform="translate(-138.64 30.505)" stroke="#000" stroke-width=".125" fill="#2b1100"/>
      <path id="path4855" d="m739.65 207.81c3.67 2.6 9 2.71 9.46 10.12l1.76 51.05c-0.01 5.34-4.93 5.77-8.14 7.92h20.46l-2.64-60.95-11-11.22-9.9 3.08z" fill-rule="evenodd" transform="translate(-138.64 30.505)" stroke="#000" stroke-width=".125" fill="#2b0000"/>
      <g id="g4871" transform="translate(-138.64 30.505)">
        <path id="path4859" d="m742.95 272.83c0.55 0 1.54-0.11 1.54-0.11l-0.11 2.97h-1.54l0.11-2.86z" fill="#808080" fill-rule="evenodd"/>
        <path id="path4861" d="m745.81 272.11a1.65 1.595 0 1 1 -3.3 0 1.65 1.595 0 1 1 3.3 0z" fill="url(#radialGradient3963)" transform="translate(-.33 .0275)"/>
      </g>
      <path id="path9750" opacity=".65109" d="m620.41 247.19c13.35 5.01 26.69 7.91 40.04 8.81 13.22-0.18 20.71 2.98 31.68 1.76 25.56-2.19 45.22-21.14 64.68-16.73l1.32 32.13-154.44 7.48 16.72-33.45z" transform="translate(-138.64 30.505)" fill-rule="evenodd"/>
      <path id="path3281" comment="forme" d="m620.53 171.41c-33.38 0.57-65.69-0.12-100.34 1.93-45.69 3.76-95.09 5.69-134.85 28.75-0.48 0.94-0.37 1.7 0.57 2.16l-58.6 61.97-90.15 10.34c-19.61 2.83-34.32 13.54-49.32 23.75l-24.09 1.97-65.344 7.5-35.531 5.56c-2.606 0.23-8.704 3.54-11.969 5.69-6.568 3.98-10.996 8.4-15.187 12.35-6.376 7.48-5.257 20.03-0.563 35.71 3.415 11.26 11.163 13.51 17.375 17.94 0.809 0.7 1.212 4.46 0.875 5.69l-4.281 0.87c-0.671 0.18-4.501 3.52-4.706 4.48l3.081 3.9c1.59 1.49 4.944 2.58 11.188 2.84 97.522-0.34 181.55 2.64 280.72-0.62 13.92-0.82 54.96-10.78 58-6.57 8.23 2.2 12.59 6.44 10.93 13.82-6.07 4.55-8.04 3.36-12 4.94-17.91 3.06-37.87 5.73-53.75 7.43l-187.37-2.5-107.13-2.81-3.371-0.47c2.629 38.04 53.322 42.86 65.621 43.63 9.41 0.49 18.81 1.04 27.41 4.78l115.97 1.81 79.62-2.94c13.28 0.43 22.61-1.11 31.94-2.65l42.94-11.1c19.53-40.18 28.93-92.88 80.72-93.22 41.36 10.43 47.74 51.38 47.9 76.41 0.05 7.66-0.49 13.84-0.78 17.19-0.62 4.58-3.75 7.44-6.78 7.5l-6.59-0.47c0.13 2.13-0.74 3.26-1.25 4.75l166.78-26.06 78.56-10.72c21.32-7.45 47.33-14.03 51.56-24.63 19.95-27.89 14.42-77.85 60.75-82.87 22.32 7.17 33.66 32.76 26.63 68.75l0.19 7.12 29.81-12.65c13.37-20.12 34.45-34.76 38.56-61.44l0.38-8.56h-1.25c-2.17-14.91-2.88-30.17-9.13-44.13-1.56-1.82-1.99-3.81-7.69-5l-93.18-3.03c-32.92-25.07-69.93-47.31-113.94-64.66-40.52-15.21-83.04-24.69-128.94-24.43zm-105.09 18.84c26.01 0.05 50.99 0.83 72.97 1.06 11.13 0.82 21.9 2.02 29.06 6.81l-34.35 78.82c-48.62-2.53-97.55-4.31-143.78-4-4.25-2.66-8.2-5.54-13.31-7.5l-96.22 0.62 57.6-61.12c8.92-3.95 17.82-7.05 26.75-8.32 32.67-5.24 67.83-6.43 101.28-6.37zm149.34 10.19c22.77-0.13 58.89 2.18 83.34 10.87 5.53 1.63 6.73 5.42 8.66 8.85 2.15 18.11 1.99 53.75 1.06 53.75l-117.75 5.12c-0.41-23.04 0.12-46.08-1.56-69.12-0.14-3.74 3.43-6.16 5.81-8.13 2.49-0.69 10.09-1.28 20.44-1.34zm-30.34 23.78c0.27 17.48 3.03 51.54 0.81 52.44-0.27 0.89-21.06 0.97-25.03 0.59-1.64 0.14-1.56-2.64-0.53-5.31 8.25-15.91 14.12-32.41 24.75-47.72zm-293.91 108.12c11.43 0 20.69 11.56 20.69 25.82 0 14.25-9.26 25.84-20.69 25.84-11.42 0-20.69-11.59-20.69-25.84 0-14.26 9.27-25.82 20.69-25.82zm-284.62 2.1c7.458 0.09 14.78 8.96 16.969 21.18 2.41 13.47-2.279 25.97-10.469 27.88s-16.809-7.47-19.218-20.94c-2.41-13.46 2.278-25.97 10.468-27.87 0.512-0.12 1.018-0.19 1.532-0.22 0.24-0.02 0.478-0.04 0.718-0.03z" fill-rule="evenodd" transform="translate(-138.64 30.505)" stroke="#000" stroke-width=".125"/>
      <path id="path3277" comment="Fondu Calendre" d="m-62.962 372.08l1.76-2.64 84.921-3.3 102.74 1.76 4.18 5.5 6.6 28.38-3.74 9.68-104.28 5.06-83.162-4.4-6.6-9.02-4.62-26.4 2.2-4.62z" fill="url(#linearGradient3965)" fill-rule="evenodd"/>
      <path id="path6000" comment="pare-brise" opacity=".75" d="m329.81 266.06l57.58-61.11c8.93-3.95 17.85-7.07 26.77-8.33 58.09-9.34 124.03-5.83 174.25-5.31 11.14 0.82 21.89 2.03 29.05 6.82l-34.35 78.79c-48.63-2.52-97.53-4.27-143.76-3.97-4.25-2.65-8.2-5.55-13.31-7.51l-96.23 0.62z" fill-rule="evenodd" transform="translate(-138.64 30.505)" stroke="#000" stroke-width=".125" fill="#fff"/>
      <path id="path3524" comment="reflet pare-brise" opacity=".27174" d="m482.34 190.66c-22.99 0.71-46.16 2.43-68.18 5.96-8.93 1.27-17.83 4.37-26.75 8.32l-57.6 61.12 96.22-0.62c3.98 1.52 7.24 3.61 10.5 5.72h0.16l13.59-25.28 10.06-20.41 11.16-21.22 10.84-13.59z" fill-rule="evenodd" transform="translate(-138.64 30.505)" fill="url(#linearGradient3967)"/>
      <path id="path5414" comment="refletcentral bas-bouclier avant" d="m131 421.78c-1.25 0.35-3.06 0.26-4.34 2.6 4.34 10.52 10.15 23.85 16.31 35.12 1.39 2.06 2.9 4.09 4.59 6.12-2.74-13.11-7.71-26.5-6.75-39.15l59.69 0.97c0.83-0.71 1.68-1.38 3.03-1.25-0.61-0.8-0.6-2.26-2.28-1.91l-66-0.97-4.25-1.53z" fill-rule="evenodd" transform="translate(-138.64 30.505)" fill="url(#linearGradient3970)"/>
      <path id="path3353" opacity=".77899" d="m150.61 331.48c0.88-0.42 2.21-0.75 2.35-2.12 1.28-4.65 5.88-5.89 10.91-6.32 37.8-1.87 76.09-1.28 114.55 0.17 19.07-10.21 51.43-19.28 129.05-27.4-2.74 4.31-74.42 5.99-108.72 27.93-0.66 1.56 2.78 0.12 4.42 0l-7.6 7.43c-0.32 1.75-28.9 4.8-32 3.8l-112.96-3.49z" fill-rule="evenodd" transform="translate(-138.64 30.505)" fill="url(#radialGradient3972)"/>
      <path id="path3234" d="m819.41 242.56l1.75 14.25c4.66-0.3 9.34-0.5 14.03-0.59 2.12-0.24-0.97-11.51-2.5-12.53-0.11-0.12-0.42-0.37-0.75-0.63l-0.53-0.15-12-0.35z" fill-rule="evenodd" transform="translate(-138.64 30.505)" stroke="#000" stroke-width=".125" fill="url(#linearGradient3974)"/>
      <path id="path3254" d="m823.86 255.13c-12.69-0.99-26.24 1.05-40.45 1.59 0.35 2.18 0.7 3.47 1.09 3.4 17.21-1.6 33.8-3.59 50.69-3.9 0.31-0.04 0.48-0.33 0.59-0.78-3.01-0.06-8.62-0.08-11.92-0.31z" fill-rule="evenodd" transform="translate(-138.64 30.505)" stroke="#000" stroke-width=".125" fill="#a8a8a8"/>
      <path id="path6059" d="m270.75 371.97c-1.07 2.2-0.65 3.42-8.63 3.94l-91.15 3.03-3.66 2.98c32.89-1.12 64.71-2.56 98.35-3.23 3.67-1.8 4.66-4.36 5.09-6.72z" fill="url(#linearGradient3976)" transform="translate(-138.64 30.505)" fill-rule="evenodd"/>
      <path id="path4453" d="m449.58 279.6c2.2 2.3 3.6 3.1 6.85 3.42l30.34 2.49c-6.74 0.29-14.16 0.78-19.87 1.07-0.61-0.77-17-1.53-17.94-0.6l13.55 1.61-14.64 3.83 73.28-5.6c-9.33-0.39-28.67-2.17-42.47-3.26 15.14 0.46 29 0.93 42.93 1.4l12.59 1.08 14.95-3.57h-18.67c-24.63-0.57 14.56-1.3-80.9-1.87z" fill="url(#linearGradient3978)" transform="translate(-138.64 30.505)" fill-rule="evenodd"/>
      <path id="path4574" d="m385.41 202.27c-0.34 1.04-0.04 1.63 0.7 1.9 8.54-4.13 17.57-6.03 26.76-7.17 59.08-10.66 118.44-10.23 178.75-4.98 8.93 0.87 16.98 3.3 25.63 6.22l-33.94 78.25c-44.18-3.45-95.56-3.75-143.99-3.73l6.53 4.51c47.86-0.33 93.55 1.2 141.41 4.98l38.89-86.81c-6.44-3.65-14.35-6.57-24.11-8.56-14.19-1.94-29.47-2.07-44.49-2.64-39.77-1.52-76.77-1-117.77 3.89-13.17 1.49-26.14 3.59-38.73 6.84-5.54 1.99-10.5 4.76-15.64 7.3z" fill-rule="evenodd" transform="translate(-138.64 30.505)" stroke="#000" stroke-width=".125" fill="#ececec"/>
      <path id="path5984" d="m306.71 392.58l-3.16-6.31 0.88-5.68 2.53-6.19c0.51-13.72-1.94-27.65-11.49-42.05 2.76-4.61 4.84-5.85 6.94-7.19 67.94-23.76 143.49-33.74 221.35-39.52l-70.84-2.18c-3.28-4.13-24.38-18.3-27.39-18.03l-95.62 0.58" transform="translate(-138.64 30.505)" stroke="#b2b2b2" stroke-width=".375" fill="none"/>
      <path id="path5992" d="m186.96 300.68c-37.34 7.93-79.57 7.49-113.75 26.61-3.219 2.33-4.311 4.93-5.71 7.5-8.783-1.31-17.512-2.73-27.768-1.25-2.204 0.73-2.913 1.89-4.018 2.94" transform="translate(-138.64 30.505)" stroke="#000" stroke-width=".125" fill="none"/>
      <path id="path5998" d="m67.5 335.86c64.96-5.7 130.26-5.39 195.37-2.8 0.36-0.01 0.43 2.83-0.17 2.97-65.97-2.61-131.01-2.96-195.44 1.88-0.44 0.03-0.51-1.94 0.24-2.05z" fill-rule="evenodd" transform="translate(-138.64 30.505)" stroke="#000" stroke-width=".125" fill="#f2f2f2"/>
      <g id="g4157" comment="essui-glace groupe" fill-rule="evenodd" transform="translate(-138.64 30.505)">
        <path id="path4135" d="m497.5 271.2l27.53 7.78c0.94 0.67 3.31 1.35-0.15 2.02l-27.38-9.8z" fill="#666"/>
        <path id="path4139" d="m439.35 264.03c8.76-0.84 17.52-1.41 26.29-0.22 12.04 1.16 23.76 3.65 35.53 5.94l25.19 6.93 6.05 2.42-3.85-0.66-1.32 1.1-30.47-8.36-50.71-5.17-6.71-1.98z" fill="url(#linearGradient3980)"/>
        <path id="path4133" d="m529.09 279.31c0 0.66-1.15 1.17-3.5 1.53 0.36 1.32 1.29 2.65 0 3.97-1.47 0.69-5.37 0.89-8.15 1.31 2.32 0.01 4.81 0.13 7.22 0.19l4.22-0.37c1.14-0.02 2.58-0.2 4.15-0.44l0.47-0.69c-1.1 0.08-1.75-0.43-1.97-1.53 0.31-0.59 0.33-1.19 1.75-1.78 0.88-0.66 0.34-1.31-0.22-1.97-0.87 1.04-2.56 0.08-3.97-0.22z" fill="url(#linearGradient3982)"/>
        <path id="path4137" d="m445.07 263.89l0.16 2.18c5.08 0.2 11.23 0.37 15.4 0.93 0.24-1.2 0.95-2.28 2.02-3.27l1.25 0.16c-1.03 1.04-1.62 2.07-2.03 3.11l1.72 0.23c0.94-1.03 1.74-2.1 1.86-3.34l3.27 0.15 1.87 3.74 21.46 2.64 4.83 0.78 0.46 1.09c-21.59-1.25-42.67-4.02-64.63-3.42l-5.84-3.11c3.98-1.07 12.61-1.61 18.2-1.87z" fill="url(#linearGradient3984)"/>
      </g>
      <path id="path3351" d="m307.25 324l46.25 1.25c4.1 0.7 6.38 3.2 8.88 5.5 2.4 5.11-4.42 5.3-7.13 6.37-0.7 0.03-4.16-3.27-7.25-4.12-13.74-2.63-34.58-0.08-51.88-0.12 2.95-3.05 3.04-6.44 11.13-8.88z" fill="url(#radialGradient3986)" transform="translate(-138.64 30.505)" fill-rule="evenodd"/>
      <path id="path6002" d="m263.42 335.5l32.65-3.57 45-0.72c21.67 5.72 34.45 40.86 5 54.65h-48.57" transform="translate(-138.64 30.505)" stroke="#000" stroke-width=".125" fill="none"/>
      <path id="path3924" d="m662.28 192c-3.27 0.04-5.6 0.14-6.69 0.25-6.68 1.27-13.49 3.7-18.37 10.69l-35.72 77.72 0.53 0.65 134.5-6.47-96.44 4.19c-0.41-23.04 0.12-46.08-1.56-69.12-0.14-3.74 3.43-6.16 5.81-8.13 7.96-2.22 68.22-3.11 103.78 9.53 5.53 1.63 6.73 5.42 8.66 8.85 2.1 17.7 2 52.11 1.13 53.65l12.15-0.59v-0.1h-1.34c-1.26-19.95-0.41-53.27-3.78-59.84-10.79-19.07-79.75-21.55-102.66-21.28zm-27.84 32.22c0.27 17.48 3.03 51.54 0.81 52.44-0.27 0.89-21.06 0.97-25.03 0.59-1.64 0.14-1.56-2.64-0.53-5.31 8.25-15.91 14.12-32.41 24.75-47.72z" fill="#ececec" transform="translate(-138.64 30.505)" fill-rule="evenodd"/>
      <path id="path3835" d="m680.91 196.88c-10.89 0.08-21.65 0.6-32.35 0.81-5.81 0.9-6.91 2.76-10.12 4.19l10.12-1.97c8.06-0.23 15.95 0.01 23.69 0.59 22.65 0.37 53.94 3.02 75.87 10.81 5.53 1.63 6.73 5.42 8.66 8.85 2.15 18.11 1.99 53.75 1.06 53.75l-2.34 0.09v0.03l8.12-0.22-2.84-53.47c-0.28-3.15-1.74-6.86-5.5-9.43-25.84-12.25-50.42-14.22-74.37-14.03z" fill="#999" transform="translate(-138.64 30.505)" fill-rule="evenodd"/>
      <path id="path3291" d="m772.12 381.17c0.11 0.29 0.27 0.66 0.5 1.24 0.36 1.13 0.62 2.66 0.87 3.79 10.97-1.23 22.04-2.73 30.67-4.66 0.41-1.64 1.14-3.83-0.71-3.88-8.63 1.5-19.17 2.72-31.33 3.51z" fill="url(#radialGradient3988)" transform="translate(-138.64 30.505)" fill-rule="evenodd"/>
      <path id="path6028" d="m596.07 283.36l-1.43 3.21 5.72 1.43 5.18 17.5 4.01 22.5-4.46 10.71 0.36 34.29-1.34 30.27-0.99 25.44 165.18-21.07 5.54-19.28s-0.98-5.45-1.88-7.06c-0.89-1.6 4.56-23.84 4.56-23.84l2.59-26.6 4.73-11.07-2.14-32.68-4.47-11.16-9.11-2.5-172.05 9.91z" transform="translate(-138.64 30.505)" stroke="#7a7a7a" stroke-width=".125" fill="none"/>
      <path id="path6030" d="m776.64 211.7c4.8 13.92 5.86 48.73 7.87 48.41 17.21-1.6 33.78-3.58 50.67-3.9 2.12-0.24-0.97-11.51-2.5-12.54-2.12-2.28-51.43-35.31-56.04-31.97z" transform="translate(-138.64 30.505)" stroke="#000" stroke-width=".125" fill="none"/>
      <path id="path6032" d="m308.98 323.52l44.45 1.26c10.6 2.12 19.99 21.4 20.96 28.54" transform="translate(-138.64 30.505)" stroke="#858585" stroke-width=".625" fill="none"/>
      <g id="g3696" transform="translate(-138.64 30.505)">
        <g id="g3703" fill-rule="evenodd">
          <path id="path3693" opacity=".5" d="m55.188 334.47c-0.514 0.03-1.02 0.1-1.532 0.22-8.19 1.9-12.878 14.41-10.468 27.87 1.636 9.15 6.124 16.38 11.406 19.5 4.771 0.3 8.737-0.63 13.375-3.84-5.619 1.33-9.257 3.71-14.281 0.09-2.895-4.99-9.026-8.67-6.063-16.06 8.824-2.88 15.648-0.46 23.781 2.75 0.66 0.11-0.344-2.19-0.344-2.19-1.105-3.67-0.215-8.45-8.374-8.25l-0.532 2.1c-5.133 2.48-10.273 0.43-15.406 0.31 4.58-3.5 3.465-6.79-0.438-10-0.201-5.21 1.744-4.32 3.532-3.85l1.094 1.1c3.566-1.08 6.044-0.02 8.781 0.56-6.782-2.72-6.045-4.77-6.688-6.94 2.15-0.34 4.736 0.42 7.469 1.54l-2.094-2.63c3.972 1.46 6.891 4.32 10.063 6.84-3.498-5.86-8.384-9.43-13.281-9.12z" fill="url(#linearGradient3990)"/>
          <path id="path3256" opacity=".5" stroke-linejoin="round" d="m77.472 359.09a19.135 24.891 0 1 1 -38.269 0 19.135 24.891 0 1 1 38.269 0z" transform="matrix(.77540 -.18056 .17539 .98007 -50.191 17.691)" stroke="#000" stroke-linecap="round" stroke-width=".125" fill="#d1d1d1"/>
        </g>
      </g>
      <path id="path6034" d="m82.062 338.66l-11.062 0.31c0.708 0.09 1.356 0.48 1.219 1.09 0.131 12.26 0.851 24.41 8.593 35.35 5.588 4.7 55.458 4.4 84.348 6.47l-0.36-2.98-77.8-4.49c-2.525-0.05-3.007-35.65-4.938-35.75z" fill="url(#linearGradient3992)" transform="translate(-138.64 30.505)" fill-rule="evenodd"/>
      <path id="path6004" d="m69.433 339.86c-0.087-1.41 3.079-1.09 2.793 0.2 0.131 12.26 0.843 24.42 8.586 35.35 5.684 4.79 57.238 4.38 85.868 6.57 32.94-1.13 65.3-2.61 98.99-3.28 4.42-2.17 4.95-5.46 5.3-8.15-0.46-9.69-2.61-21.42-5.87-28.66-0.47-1.49-1.61-4.69 1.71-3.7 3.48 11.2 6.67 21.89 6.69 33.09-0.47 3.68-2.48 7.44-5.81 9.18-33.19 1.71-67.93 2.89-102.02 4.3-29.13-2.11-79.628 0.69-87.383-6.32-7.925-9.42-9.797-25.32-8.854-38.58z" fill="#ccc" transform="translate(-138.64 30.505)" fill-rule="evenodd"/>
      <path id="path6044" d="m167.67 371.96l-3.33-0.02c0.79 1.35 0.21 6.91 0.82 9.92 0.71 0.05 1.4 0.16 2.15 0.08 0.52-3.33-0.2-7.01 0.36-9.98z" fill="#f2f2f2" transform="translate(-138.64 30.505)" fill-rule="evenodd"/>
      <path id="path6049" d="m170.88 371.97l-3.21 0.03c-0.55 2.96 0.17 6.57-0.35 9.87l3.65-2.93-0.09-6.97z" fill="url(#linearGradient3994)" transform="translate(-138.64 30.505)" fill-rule="evenodd"/>
      <path id="path6069" d="m145.59 349c-4.09 0.03-8.18 0.08-12.31 0.19-3.52-0.07 3.7 20.41 6.31 21.43 0.46 1.28 47.95 2.28 47.38-0.28 0.37-6.93-2.21-21.13-4.75-21.18-12.21-0.05-24.35-0.25-36.63-0.16zm0.91 1.06c11.47-0.08 22.83 0.09 34.25 0.13 2.38 0.04 4.79 12.6 4.44 18.72 0.27 1.92-44.04 1.13-44.28 0.25-2.44-0.91-9.2-18.97-5.91-18.91 3.86-0.1 7.68-0.16 11.5-0.19z" fill="#e6e6e6" transform="translate(-138.64 30.505)" fill-rule="evenodd"/>
      <path id="path2402" d="m187.38 345.09l-47.22 0.29c-1.99 0.17-5.72 2.04-7.1 3.81h0.22c16.51-0.44 32.66-0.09 48.94-0.03 2.54 0.05 5.12 14.25 4.75 21.18 0.02 0.09-0.04 0.17-0.13 0.25v0.07c3.29-0.13 6.56 0.23 7.28-2.69 1.14-4.02 0.02-9.14-0.15-13.69-0.58-4.12-3.01-9.15-6.59-9.19z" fill="url(#linearGradient3996)" transform="translate(-138.64 30.505)" fill-rule="evenodd"/>
      <path id="path2415" d="m283.81 336.41c-4.16 0.06-11.83 1.63-17 1.81 3.48 11.18 6.67 21.87 6.69 33.06-0.47 3.68-2.48 7.44-5.81 9.19-33.2 1.7-67.94 2.88-102.03 4.28-15.7-1.13-37.56-0.85-55.63-1.44 58.59 5.17 117.72 0.79 176.31-2.46 9.7-2.37 3.31-42.06 0.28-43.79-0.3-0.5-1.32-0.68-2.81-0.65z" fill="url(#linearGradient3998)" transform="translate(-138.64 30.505)" fill-rule="evenodd"/>
      <path id="path2403" d="m157.77 334.25l0.27 14.73h2.5l0.02-14.73h-2.79z" fill="#ccc" transform="translate(-138.64 30.505)" fill-rule="evenodd"/>
      <path id="path3195" d="m132.78 354.66c-7.08 1.05-16.97 0.71-25.47 1.06-1.04 0.21-2.13 0.37-2.75 1.16-1.58 0.32-4.29 0.34-6.435 0.53h0.5l34.905 0.21c-0.28-0.96-0.49-1.89-0.69-2.78l-0.06-0.18z" fill="url(#linearGradient4000)" transform="translate(-138.64 30.505)" fill-rule="evenodd"/>
      <path id="path2416" d="m251.25 349.38a7.4107 7.7232 0 1 1 -14.82 0 7.4107 7.7232 0 1 1 14.82 0z" fill="#ececec" transform="matrix(1.5453 0 0 2.1024 -268.19 -345.55)"/>
      <path id="path3191" d="m252.66 339.69c-2.34-0.02-5.75 1.42-8.25 2.9v0.19c0.91-0.33 1.86-0.53 2.84-0.53 6.32 0 11.47 7.29 11.47 16.25s-5.15 16.22-11.47 16.22c-0.2 0-0.39-0.02-0.59-0.03l-6.22-3.04c3.97 4.64 12.06 6.03 17.8 4.36 10.17-5.4 11.98-33.2-5.58-36.32z" fill="url(#linearGradient4002)" transform="translate(-138.64 30.505)" fill-rule="evenodd"/>
      <path id="path3212" d="m194.53 353.03l-7.03 3.41h0.22l48.16 0.72c0.06-1.12 0.19-2.22 0.4-3.25l-41.75-0.88z" fill="url(#linearGradient4004)" transform="translate(-138.64 30.505)" fill-rule="evenodd"/>
      <path id="path3210" d="m187.33 356.43l49.61 0.71c4.47 0.09 7.63 0.39 7.37 0.94-0.53 2.08-3.98 0.78-8.58 2.97-14.31 0.35-28.56 0.98-43.01 0.66l-4.4-1.21c-1.32-1.21-1.57-2.58-0.99-4.07z" fill-rule="evenodd" transform="translate(-138.64 30.505)" stroke="#000" stroke-width=".125" fill="#f2f2f2"/>
      <path id="path3236" d="m777.56 211.44c-0.39 0-0.69 0.09-0.9 0.25 0.94 2.72 1.71 6.28 2.4 10.19l40.6 20.68 11.75 0.35 0.56 0.15c-5.89-4.62-45.24-30.75-53.97-31.59-0.15-0.02-0.31-0.03-0.44-0.03z" fill-rule="evenodd" transform="translate(-138.64 30.505)" stroke="#000" stroke-width=".125" fill="url(#linearGradient4006)"/>
      <path id="path3232" d="m808.94 238.22l11.2-2.02 4.36 19.13-11.98-0.31-3.58-16.8z" fill-rule="evenodd" transform="translate(-138.64 30.505)" stroke="#000" stroke-width=".125" fill="#9f9f9f"/>
      <path id="path3230" d="m797.74 231.06l11.51-1.08 5.76 25.82-12.76 0.15-4.51-24.89z" fill-rule="evenodd" transform="translate(-138.64 30.505)" stroke="#000" stroke-width=".125" fill="#848484"/>
      <path id="path3228" d="m785.92 226.71l12.13-2.65 5.91 32.52-13.38-0.16-4.66-29.71z" fill-rule="evenodd" transform="translate(-138.64 30.505)" stroke="#000" stroke-width=".125" fill="#676767"/>
      <path id="path3226" d="m787.8 218.05l-9.06 1.8c2.66 13.51 3.63 32.21 4.93 38.04l10.17 0.08-6.04-39.92z" fill-rule="evenodd" transform="translate(-138.64 30.505)" stroke="#000" stroke-width=".125" fill="#535353"/>
      <path id="path5345" d="m45.211 418.88c11.661 0.27 25.486 2.01 26.549 3.89l14.814 34.01c-13.088-4.01-35.803-9.7-41.363-37.9z" fill="url(#radialGradient4008)" transform="translate(-138.64 30.505)" fill-rule="evenodd"/>
      <g id="g3505" opacity=".35" filter="url(#filter3588)" fill-rule="evenodd" fill="url(#linearGradient4010)">
        <path id="path3309" opacity="1" d="m605.46 377.31l-1.59 50.91 164.18-20.88 5.53-19.03c-0.1-2.58-1.21-5.08-2.04-7.6 0.57-6.52 2.89-15.42 4.4-21.79-0.72 0.9-1.96 2-3.07 1.95-50.15 2.71-108.29 5.47-158.92 12.9-4.96 1.18-6.22 2.36-8.49 3.54z" transform="translate(-138.64 30.505)"/>
        <path id="path3326" opacity="1" d="m535.63 388.44c22.55-9.85 46.42-11.29 69.39-16.08l-2.77 64.52c-0.11 3.26-1.4 8.04-6.34 11.31l-54.44 9.9c-2.33-0.17-5.79 1.64-5.66-2.83 3.28-16.04 1.94-33.4-1.77-51.44 1.61-2.12 5.61 16.46 8.49 25.28-2.3-13.55-9.57-35.05-6.9-40.66z" transform="translate(-138.64 30.505)"/>
        <path id="path3307" d="m772.75 378.75c8.54-0.86 22.32-1.01 25.25-2.75 2.24-3.57 12.55-16.09 4.25-18.5-8.13-0.37-16.11 0-24.56 1.94-1.78-0.42-5.52 18.94-4.94 19.31z" transform="translate(-138.64 30.505)"/>
        <path id="path3328" opacity="1" d="m603.87 429.46c-1.15-0.82-1.36 7.71-1.59 11.66-1.07 3.25-4.58 5.71-5.84 7.96l170.06-22.98c12.53-3.68 24.42-7.64 34.83-12.02 7.45-2.86 11.87-6.34 15.56-9.9 3.73-3.33-54.45 6.24-81.68 9.37l-131.34 15.91z" transform="translate(-138.64 30.505)"/>
        <path id="path3311" opacity="1" d="m773.62 386.12l0.49 2.23-5.44 19.23 49.28-5.35c9.69-13.53 12.25-30.64 18.38-45.96-1.54-1.5-7.58 12.13-8.48 10.96-2.51-2.76-0.48-9.31-0.71-13.97-0.84-1.67-8.44-2.48-9.72-1.76-2.13-0.18-6.6 19.53-11.32 28.72-0.74 2.12-23.24 4.86-32.48 5.9z" transform="translate(-138.64 30.505)"/>
      </g>
      <path id="path3273" opacity=".92754" d="m374.32 354.69c0.47-2.95 163.15-21.56 234.52-25.53l-3.96 9.69c-75.89 2.64-228.72 16.89-230.56 15.84z" fill-rule="evenodd" transform="translate(-138.64 30.505)" fill="url(#radialGradient4022)"/>
      <path id="path3275" opacity=".9058" d="m609.1 329.24l-3.87 9.7c57.35-4.34 115.62-7.74 173.59-7.34l0.07-0.74 4.75-11.01 0.01-0.82c-58.48 2.44-118.63 5.08-174.55 10.21z" fill-rule="evenodd" transform="translate(-138.64 30.505)" fill="url(#radialGradient4024)"/>
      <path id="path3279" opacity=".92029" d="m783.95 319.01l1.14-0.04c0.03-0.28 0.19-0.69 0.43-0.73l33.77-0.55c3.41-0.2 2.77 4.9 2.2 5.19-1.4 1.23-8.97 6.39-9.02 7.09-0.06 0.46-22.17 1.06-33.25 1.49v-0.4l4.82-11.31-0.09-0.74z" fill-rule="evenodd" transform="translate(-138.64 30.505)" fill="url(#radialGradient4026)"/>
      <path id="path3287" d="m559.56 410.59c0.1-0.5 44.03-7.87 44.4-7.62l-0.07 2.29c-14.93 1.33-44.32 5.3-44.33 5.33z" fill="url(#radialGradient4028)" transform="translate(-138.64 30.505)" fill-rule="evenodd"/>
      <path id="path3289" d="m604.28 402.97l-0.09 2.25c58.15-6.71 117.27-13.28 168.96-19.34-0.49-1.65-0.72-3.37-1.45-4.66-55.53 7.2-108.93 15.14-167.42 21.75z" fill="url(#radialGradient4030)" transform="translate(-138.64 30.505)" fill-rule="evenodd"/>
      <path id="path3298" d="m634.45 224.22c-10.63 15.31-16.5 31.82-24.75 47.73-1.02 2.67-1.1 5.44 0.53 5.3 3.97 0.38 24.76 0.31 25.03-0.59 2.22-0.9-0.54-34.96-0.81-52.44z" transform="translate(-138.64 30.505)" stroke="#000" stroke-width=".125" fill="none"/>
      <path id="path3305" opacity=".71739" d="m247.49 302.53c1.61-3.12 3.61-6.71 8.48-9.37 14.87-6.31 29.3-12.72 45.26-17.5 18.15-3.43 36.3-4.95 54.44-7.42 21.16 0.67 43.2-0.71 63.38 1.14 5.94 0.76 9.17 1.13 13.61 2.39 3.88 1.85 7.64 3.93 11.05 6.72 1.3 0.82 1.65 1.77 1.06 2.83-38.3 3.55-76.6 8.4-114.9 13.08-27.46 3.94-82.38 10.36-82.38 8.13z" fill-rule="evenodd" transform="translate(-138.64 30.505)" fill="url(#radialGradient4032)"/>
      <path id="path3318" d="m516.75 183.5c-29.93 1.1-59.13 2.81-86.25 6.25-13.06 2.57-26.26 3.91-38.88 9.57-2.2 1.03-4.41 1.65-6.28 3.24-0.15 1.07 0.32 1.31 0.86 1.45 0.68 0.36 0.69 0.86 0.8 1.33l0.41-0.4c8.92-3.95 17.82-7.05 26.75-8.32 58.08-9.33 124.02-5.83 174.25-5.31 11.13 0.82 21.9 2.02 29.06 6.81l-34.35 78.82c-48.62-2.53-97.55-4.31-143.78-4l6.78 4.56c47.62 0.27 93.95 3.11 140.63 5.25l40.5-88c-6.06-2.56-10.85-5.74-19.5-7-29.99-4.15-60.57-3.64-91-4.25z" fill="none" transform="translate(-138.64 30.505)"/>
      <path id="path3330" opacity=".88406" d="m251.75 303.75l86.76-9.16c12.98-1.3 15.03-0.08 18.5 0.21 5.05 0.74 5.64 1.26 6.24 2.45-1.44 5.05-57.6 8.73-86.87 10.13-8.76 0.04-24.66 0.29-24.63-3.63z" fill-rule="evenodd" transform="translate(-138.64 30.505)" fill="url(#radialGradient4034)"/>
      <path id="path3333" opacity=".5" d="m883.5 318.75c18.08 10.62 29.09 26.9 23 70.28-0.22 1.66 0.15 4.11-0.12 5.85l29.12-12.33c10.58-13.83 28.8-34.63 31-40.1 0.7-7.17 1.83-16.53 2.08-23.7-4.9 3.78-10.51 6.8-16.08 9.25-0.65 0.65-1.29 1.87-1.94 4-13.02 4.3-21.46 9.63-37.75 12.75-1.48 0.33-0.87 18.23-1.06 19.25-0.2-26.46-9.89-41.53-26.75-48l-1.5 2.75z" fill-rule="evenodd" transform="translate(-138.64 30.505)" fill="url(#linearGradient4036)"/>
      <path id="path3335" d="m600.52 287.86c1.58 4.76 4.14 11.39 6.16 14.28 0.61 1.39 41.38-1.55 62.42-2.62 11.78-1.82 26.83-1.21 40.3-1.76 10.83-2.99 27.05-7.28 40.66-7.96 1.54-0.05 4.79 0.33 4.61-0.16-0.34-1.55 0.61-2.84 1.4-4.17l24.4-0.97-1.59-3.54-1.72-4.93c-60.12 2.28-117.67 5.71-181.17 8.07l-1.19 2.34 5.72 1.42z" fill="url(#radialGradient4038)" transform="translate(-138.64 30.505)" fill-rule="evenodd"/>
      <path id="path3337" d="m777.41 275.92l3.4 8.46c1.43 0.31 3.6 0.54 3.57 3.12 5.58 0.29 11.16 0.68 16.74 1.62 6.76 0.61 10.67-7.33 16-11l50.63-17c-19.5 1.37-37.87-0.31-58.5 4.13-5.1 1.56-10.5 6.29-15.75 9.5l-16.09 1.17z" fill="url(#radialGradient4040)" transform="translate(-138.64 30.505)" fill-rule="evenodd"/>
      <path id="path3339" d="m354.12 324.12c4.56 1.69 6.71 4.05 9 6.38 1.45-2.4 3-4.41 6-6.5 72.7-11.25 201.65-19.91 234.84-19.21 0.35 0 1.27 0.23 1.01-0.51l-4.81-16.22c-72.62 7.13-145.4 13.25-218.91 23.94-11.78 1.38-19.07 7.64-27.13 12.12z" fill="url(#radialGradient4042)" transform="translate(-138.64 30.505)" fill-rule="evenodd"/>
      <path id="path3341" d="m768.28 273.33l8.95 2.45 9.28-0.7c2.03-0.23 10.76-7.56 16.63-10.78 3.54-1.04 11.05-1.75 10.61-3.14-0.4-0.34-10.29-0.05-16.09 0.93-5.75 1.08-8.3 7.23-14.67 10.34-0.61 0.46-6.29 0.58-10.79 0.69-0.13 0 0.04 0.18-0.09 0.18-1.45 0.04-2.79 0.05-3.83 0.03z" fill="url(#linearGradient4044)" transform="translate(-138.64 30.505)" fill-rule="evenodd"/>
      <path id="path3343" d="m458.21 355.92c6.32-12.29 35.81-9.91 43.84-4.6 1.71 1.51 2.03 7.53 0 7.07-14.75-7.19-38.86-1.88-43.84-2.47z" fill="url(#radialGradient4046)" transform="translate(-138.64 30.505)" fill-rule="evenodd"/>
      <path id="path3349" d="m26.163 405.77c4.332-6.98 13.35-9.28 22.274-11.67-2.978 4.35-5.214 10.07 10.253 10.72 97.52-0.35 181.56 2.62 280.72-0.64 13.93-0.82 54.95-10.76 57.98-6.54 8.24 2.19 12.62 6.41 10.96 13.78-6.07 4.55-8.06 3.38-12.02 4.95-17.91 3.07-37.86 5.72-53.74 7.43l-187.38-2.48-107.13-2.82-17.321-2.48c-7.395-3.95-7.532-7.24-4.596-10.25z" fill="#e6e6e6" transform="translate(-138.64 30.505)" fill-rule="evenodd"/>
      <path id="path3355" d="m48.516 324.3c-0.899-0.78 4.725-5.14 12.826-8.16 14.436-2 28.463-5.64 43.308-6.01l7.43-0.18c1.24 0.03 1.24 0.68-0.18 0.89-23.769 3.46-63.227 14.36-63.384 13.46z" fill="url(#radialGradient4048)" transform="translate(-138.64 30.505)" fill-rule="evenodd"/>
      <path id="path3357" opacity=".91304" d="m160.51 320.56c3.08-2.37 3.44-5.2 11.67-6.72 41.7 0.7 110.11 2.08 110.8 3.98-2.01 2.63-4.54 2.71-6.68 3.62-38.94-1.68-77.28-0.95-115.79-0.88z" fill-rule="evenodd" transform="translate(-138.64 30.505)" fill="url(#radialGradient4050)"/>
      <path id="path3550" d="m101.96 323.46c21.95-2.71 46.79-4.65 65.32-8.27-2.54 1.12-4.86 2.67-6.45 4.42-3.56 3.08-39.24 2.57-58.87 3.85z" fill="url(#radialGradient4052)" transform="translate(-138.64 30.505)" fill-rule="evenodd"/>
      <path id="path3592" d="m256.38 279.72c-4.62 0.04-8.72 0.79-13.26 0.44-6.5 0.43-31.1 19.64-30.62 19.84 11.49 0.91 24.87 0.12 37.81-2.06 1.34-1.72 3.09-3.38 5.66-4.78 9.64-4.1 19.1-8.24 28.91-11.94-7.09-0.96-18.02-1.54-28.5-1.5z" fill="url(#linearGradient4054)" transform="translate(-138.64 30.505)" fill-rule="evenodd"/>
      <path id="path3608" d="m241.94 280.34c-4.74 0.84-14.61-0.54-16.16-0.4-24.56 2.21-37.88 21.28-36.47 20.62 8.02 1.74 14.68 0.75 21.75 0.6 0.63-0.25 1.36-0.65 2.16-1.13-0.24-0.02-0.49-0.01-0.72-0.03-0.02-0.01 0.07-0.09 0.16-0.19 1.65-1.75 21.42-17.03 29.06-19.37 0.02-0.01 0.04-0.03 0.06-0.03 0.05-0.03 0.11-0.04 0.16-0.07z" fill="url(#linearGradient4056)" transform="translate(-138.64 30.505)" fill-rule="evenodd"/>
      <path id="path3635" opacity=".77899" d="m216.44 299.06c-1.18 0.81-2.27 3.03-2.73 3.13 16.91 0.59 29.93-0.91 31.7 0.27-8.08 0.73-34.02 1.38-34.01 0.27-1.58-1.93 5.85-4.08 5.04-3.67z" fill-rule="evenodd" transform="translate(-138.64 30.505)" fill="url(#radialGradient4058)"/>
      <path id="path3677" d="m80.166 324.31c27.554-13.69 67.244-16.84 103.93-22.59 3.47 0.02-0.86 1.39-2.08 2.1l26.39-0.27c-11.68 2.8-23.27 5.94-34.83 9.25l-25.3 4.35c-21.59 3.13-44.48 5.31-68.114 7.16z" fill="url(#radialGradient4060)" transform="translate(-138.64 30.505)" fill-rule="evenodd"/>
      <path id="path3687" d="m405.47 297.21c9.49 0.42 18.92 3.49 22.25 6.99l172.17-15.86c-1.29-1.04-2.52-0.88-4.79-1.68-0.67-0.24 1.62-3.16 0.06-3.27-6.91-0.53-28.98-1.8-43.31-1.96-6.92 1.53-17.71 4.42-22.98 4.52l-123.4 11.26z" fill="url(#linearGradient4062)" transform="translate(-138.64 30.505)" fill-rule="evenodd"/>
      <path id="path5332" d="m322 369.66l-0.12 3.81c-13 2.48-19.82 6.87-23.41 12.25l29.94 0.28c-1.56-0.56-3.8-0.01-4.38-2.19 1.33-1.46 1.74-2.87 4.63-3.53l-0.78-1.69c-2.46-2.37-4.48-5.43-5.88-8.93z" fill="url(#linearGradient4064)" transform="translate(-138.64 30.505)" fill-rule="evenodd"/>
      <path id="path3697" opacity=".40942" d="m363.81 357.91c0.9 9.6-1.91 15.11-5.59 19.62 7.76 3.42 18.3 6.57 24.62 11.91l-14.03 1.94-44.43 1.34 58.09 2.12c7.51-0.29 12.38 0.73 15.91 3.07 7.6 2.26 11.55 6.45 9.96 13.53-4.54 3.4-6.78 3.58-9.28 4.12-0.01 0.01-0.02 0-0.03 0-41.01 13.53-86.99 11.26-132.19 10.44 8.57 13.73 19.85 26.36 23.28 39.62l54.44-2.68c12.46-3.11 16.43-11.24 22.5-19.25-3.34 5.67-4.04 12.44-10.56 16.75 16.2-2.13 36.15-3.83 51.34-11.35 7.26-12.69 11.52-25.39 16.94-38.09-5.29 8.06-13.97 23.27-14.22 20.78-0.89-20.95 10.39-38.58 20.38-56.56-17.95-4.92-45.56-2.99-53.77-14.85-4.1 0.18-9.57-2.03-13.36-2.46z" fill-rule="evenodd" transform="translate(-138.64 30.505)" fill="url(#radialGradient4066)"/>
      <path id="path3720" d="m34.009 336.74c2.673 2.79 5.426 6.22 7.754 6.26-0.834 4.31-2.821 7.92-2.04 13.2-2.44 1.15-4.262 3.53-5.986 6.12-1.587-8.86-3.426-17.77 0.272-25.58z" fill="url(#radialGradient4068)" transform="translate(-138.64 30.505)" fill-rule="evenodd"/>
      <path id="path3730" d="m45.3 328.72c17.599-3.19 35.948-8.63 54.007-13.2-18.69 2.38-36.74 5.63-54.007 13.2z" fill="url(#radialGradient4070)" transform="translate(-138.64 30.505)" fill-rule="evenodd"/>
      <path id="path3778" d="m162.47 334.19l-2.09 0.19 0.15 14.62 4.63-3.81-2.13-11h-0.56z" fill="url(#linearGradient4072)" transform="translate(-138.64 30.505)" fill-rule="evenodd"/>
      <path id="path5309" d="m620.53 171.41c-33.38 0.57-65.69-0.12-100.34 1.93-39.38 3.24-81.51 5.12-117.85 20.35l76.25-7.41 60.97-2.44c-0.57 0-1.14-0.02-1.72-0.03h-0.09c-2-0.17-4.01-0.37-6-0.59 3.88-0.23 7.78-0.47 11.66-0.69 22.05 0.36 44.09 1.03 65.81 4.35 8.69 1.39 13.54 4.92 19.59 7.78 12.87-12.39 33.18-14.59 51.97-15.69-2.96-0.17-5.92-0.31-8.87-0.44l15.62-0.62c-21.59-4.31-43.87-6.63-67-6.5zm73 7.78l7.35 5.19 49.56 11.87c-0.33-0.13-0.64-0.28-0.97-0.41-18.2-6.83-36.81-12.49-55.94-16.65z" fill="url(#radialGradient4074)" transform="translate(-138.64 30.505)" fill-rule="evenodd"/>
      <path id="path5361" d="m84.782 420.04l40.768 1.66c5.38 13.21 13.58 32.13 21.82 45.34l-8.26-0.7c-7.54-3.49-19.06-4.32-30.88-4.96 0.78-4.91 1.99-11.68 0.66-17.29-3.57-6.93-16.658-17.12-24.108-24.05z" fill="url(#linearGradient4076)" transform="translate(-138.64 30.505)" fill-rule="evenodd"/>
      <path id="path5377" d="m203.5 425.97l-2.44 1.91c5.11 9.07 7.75 19.64 10.35 30.21-1.18-0.75-3.32 0.05-4.5 1.35l0.97 7.62c21.76 0.33 43.52 1.53 65.28 0.56l-0.6-1.31c-4.46-6.76-13.02-22.51-18-38.5l-0.03-0.12-0.69-1.44-50.34-0.28z" fill="url(#linearGradient4078)" transform="translate(-138.64 30.505)" fill-rule="evenodd"/>
      <path id="path5429" d="m141.21 427.35c-0.08-1.25 57.04 0.03 57.14 0.77 2.79 1.4 2.73 3.86 3.65 5.96l5.39 32.13c0.25 0.82-0.18 1.55-1.73 2.12l-54.44-1.16c-1.54-1.19-3.08-1.42-4.62-5-2.03-11.61-4.98-23.21-5.39-34.82z" fill="#f2f2f2" transform="translate(-138.64 30.505)" fill-rule="evenodd"/>
      <path id="path3178" d="m-47.491 371.78c-1.941-0.04-10.498 2.69-10.645 3.75 0.353-0.09 3.164-1.22 3.532-1.26 0.735-0.07 1.452-0.04 2.167 0.1 0.357 0.06 0.703 0.17 1.052 0.28 0.009 0.01 0.022 0 0.031 0 0.34 0.11 0.667 0.25 0.997 0.41 0.008 0 0.023-0.01 0.031 0 0.669 0.31 1.311 0.74 1.927 1.23 0.318 0.24 0.626 0.47 0.926 0.76 0.006 0.01-0.003 0.03 0.002 0.03 0.584 0.56 1.151 1.2 1.657 1.9 1.791 2.46 3.048 5.73 3.424 9.38 0.86 8.35-3.218 15.59-9.104 16.17-0.357 0.04-2.579-0.19-2.932-0.21 2.575 0.99 9.428 0.5 12.601-0.02 10.563-6.64 11.992-26.63-4.311-32.69-0.063-0.04-1.098 0.15-1.355 0.17z" fill="url(#linearGradient4080)" fill-rule="evenodd"/>
      <path id="path5444" stroke-linejoin="round" d="m96.25 359.7a10.804 16.161 0 1 1 -21.607 0 10.804 16.161 0 1 1 21.607 0z" fill-rule="evenodd" transform="matrix(.98696 -.097858 .096418 .93583 -172.07 61.157)" stroke="url(#radialGradient4082)" stroke-linecap="round" stroke-miterlimit="4.2" stroke-width=".125" fill="#f2f2f2"/>
      <path id="path3189" d="m97.688 357.41l-15.407 0.65c-4.768 2.46 35.039 2.78 52.809 4.16-0.56-1.52-1.09-3.08-1.53-4.6l-35.872-0.21z" fill-rule="evenodd" transform="translate(-138.64 30.505)" stroke="#000" stroke-width=".125" fill="#f2f2f2"/>
      <path id="path5446" d="m45.3 395.51c-9.996 2.49-16.119 4.95-18.501 11.43-2.535 5.23 25.485 2.81 38.227 4.21l86.384 2.86c39.27 0.25 120.23 2.26 120.87 0.82-1.18-2.33-63.69-1.27-87-2.04l-35.91-0.96c-0.33-0.61-2.73-1.12 0.54-1.9 36.42 0.14 79.94 0.83 109.24 0.41 1.72-1.18 0.92-4.29 9.93 0.13l7.35-0.81c1.13-0.58 2.26-1.19 3.4 0 24.3 0.41 34.91-0.55 52.37-0.82-1.17-2.49-29.19-1.9-43.8-2.86l-144.74-0.4c4.13 0.82 8.66 1.66 2.04 2.31-12.43-0.18-30.51 0.03-37.28-0.54-0.17-0.59 9.29-1.32 11.43-1.91-16.91 1.8-36.771 1.53-57.273 0.82l-15.508-3.81c-5.125-5.78-2.392-5.55-1.769-6.94z" fill="url(#radialGradient4084)" transform="translate(-138.64 30.505)" fill-rule="evenodd"/>
      <path id="path5448" d="m328.12 406.12l11.97 1.63c4.29 0.22 5.69-0.58 4.9-2.17 1.82-0.11 0.03-3.29 6.18 0.31l4.7 0.23 8.71-0.54c12.13-1.02 19.24-2.54 26.53-4.42 7.55-1.3 13.55 1.88 14.28 0.68-4.44-4.94-8.57-3.75-10.88-4.7-17.97 1.39-21.19 2.91-45.51 6.34-2.29 0.32-4.55 1.38-7.28 1.24-4.77-0.24-17.29-0.26-13.6 1.4z" fill="url(#radialGradient4086)" transform="translate(-138.64 30.505)" fill-rule="evenodd"/>
      <path id="path5450" d="m407.23 403.83c0.08 1.14 0 2.62-0.91 2.65-19.62 3.65-41.73 1.39-61.76 6.73-17.91 0.35-41.53 0.26-62.43 0.38-5.92 0.01-10.23 1.33 0.1 1.16 0 0 77.43 1.55 78.49-0.39 0.91-0.48 1.56-2.17 2.7-0.38 14.63-1.95 36.69-2.16 44.53-5.87 1.29-1.17-0.02-2.86-0.72-4.28z" fill="url(#radialGradient4088)" transform="translate(-138.64 30.505)" fill-rule="evenodd"/>
      <path id="path5527" d="m339.37 438.32a9.4269 8.465 0 1 1 -18.86 0 9.4269 8.465 0 1 1 18.86 0z" fill="url(#radialGradient4090)" transform="matrix(.74228 -.60610 .92564 1.2205 -455.27 137.82)" fill-rule="evenodd"/>
      <path id="path5492" d="m339.37 438.32a9.4269 8.465 0 1 1 -18.86 0 9.4269 8.465 0 1 1 18.86 0z" fill="url(#radialGradient4092)" transform="matrix(.59885 -.48898 .74678 .98465 -329.18 202.97)" fill-rule="evenodd"/>
      <path id="path5496" d="m334.72 433.84c-0.38 0.18-0.76 0.39-1.1 0.66-3.11 2.54-2.8 8.37 0.69 12.97 1.53 2.01 3.42 3.47 5.31 4.25 0.39-0.18 0.73-0.42 1.07-0.69 3.11-2.54 2.83-8.34-0.66-12.94-1.53-2.01-3.41-3.46-5.31-4.25z" fill="url(#radialGradient4094)" transform="translate(-138.64 30.505)" fill-rule="evenodd"/>
      <path id="path5529" d="m332.53 429.91c-2.78 0.21-3.37 0.59-4.28 0.93 3.88-1.26 9.13 0.94 12.75 5.72 4.33 5.71 4.71 12.91 0.84 16.06-0.59 0.49-1.26 0.82-1.96 1.07 1.39 0.48 5.67-1.87 7.56-3.75 0.62-10.61-5.16-20.21-14.91-20.03z" fill="url(#linearGradient4096)" transform="translate(-138.64 30.505)" fill-rule="evenodd"/>
      <path id="path3418" d="m744.12 193.88l25.22 12.43 9.04 5.22h0.03c0.25 0.04 0.51 0.11 0.81 0.19 0.24 0.06 0.48 0.1 0.75 0.19 0.07 0.02 0.12 0.04 0.19 0.06 0.03 0.01 0.08 0.02 0.12 0.03 0.64 0.21 1.36 0.5 2.13 0.81 0.06 0.03 0.12 0.04 0.18 0.07 0.77 0.32 1.6 0.71 2.47 1.12 0.23 0.11 0.42 0.2 0.66 0.31 0.75 0.37 1.5 0.74 2.31 1.16 0.43 0.22 0.81 0.42 1.25 0.65 0.11 0.06 0.21 0.14 0.31 0.19 1.11 0.59 2.26 1.19 3.44 1.85 0.06 0.03 0.1 0.06 0.16 0.09 0.52 0.29 1.02 0.57 1.56 0.87 0.86 0.5 1.71 0.99 2.59 1.5 1.44 0.84 2.88 1.68 4.35 2.57 0.14 0.09 0.29 0.16 0.43 0.25 0.48 0.28 0.94 0.58 1.41 0.87 2.05 1.25 4.1 2.51 6.13 3.78 1.68 1.07 3.32 2.12 4.93 3.16 0.75 0.48 1.53 1 2.25 1.47 0.19 0.12 0.35 0.22 0.54 0.34 2.08 1.37 4.06 2.68 5.84 3.88 1.89 1.27 3.7 2.49 5.09 3.47l0.07 0.03c0.03 0.02 0.05 0.04 0.09 0.06 1.56 1.1 2.75 2 3.47 2.56h0.03c0.32 0.26 0.61 0.52 0.72 0.63 1.45 0.97 4.31 11.17 2.78 12.4l0.06 0.22-20.19 3.66 46.41-0.72c-32.5-24.56-69.01-46.35-112.28-63.41-1.78-0.66-3.56-1.32-5.35-1.96z" fill="url(#linearGradient4098)" transform="translate(-138.64 30.505)" fill-rule="evenodd"/>
      <path id="path3475" d="m386.31 202.07c26.94-13.69 58.6-10.9 88.11-15.59 1.58-0.07 1.55 0.73 1.16 1.73 38.84 0.25 77.23-2.27 116.55 0.83 9.32 1.07 17.34 4.07 25.62 6.68 2.15 0.96 0.98 1.97 0.82 2.93l-6.4 13.23 5.77-14.05c-4.64-2.71-9.59-4.04-15.2-5.34-9.16-1.19-18.5-2.14-28.21-1.89-34.05 0.06-68.52-1.37-102.22-0.08-28.73 1.98-59.28 2.88-85.23 14.05-0.48-0.78-2.71-1.16-0.77-2.5z" fill="url(#radialGradient4100)" transform="translate(-138.64 30.505)" fill-rule="evenodd"/>
      <path id="path3265" stroke-linejoin="round" d="m63.16 437.97a8.4005 10.423 0 1 1 -16.801 0 8.4005 10.423 0 1 1 16.801 0z" fill-rule="evenodd" transform="matrix(.77494 -.47317 .89186 1.098 -513.52 11.958)" stroke="#000" stroke-linecap="round" stroke-width=".125" fill="#bbb"/>
      <path id="path3491" stroke-linejoin="round" d="m63.16 437.97a8.4005 10.423 0 1 1 -16.801 0 8.4005 10.423 0 1 1 16.801 0z" fill-rule="evenodd" transform="matrix(.46830 -.15924 .53895 .79762 -344.57 125.95)" stroke="#000" stroke-linecap="round" stroke-width=".125" fill="#4d4d4d"/>
      <path id="path3493" stroke-linejoin="round" d="m54.219 429c-0.416 1.71-0.455 4.08 0 6.75 0.435 2.56 1.252 4.9 2.219 6.72 1.913 1.52 3.748 2.31 4.937 1.91 2.172-0.74 1.413-5.07-1.687-9.66-1.655-2.45-3.643-4.47-5.469-5.72z" fill-rule="evenodd" transform="translate(-138.64 30.505)" stroke="#000" stroke-linecap="round" stroke-width=".084719" fill="url(#radialGradient4102)"/>
      <path id="path3824" d="m670.94 195.53c-9.66 0-17.87 0.42-24.35 0.63-4.09 1.39-6.86 3.35-9.37 6.78l-36.06 78.5-0.57 0.03v0.03l39.85-1.09-0.03-1.38h-0.32c-0.41-23.04 0.12-46.08-1.56-69.12-0.14-3.74 3.43-6.16 5.81-8.13 7.96-2.22 68.22-3.11 103.78 9.53 5.53 1.63 6.73 5.42 8.66 8.85 2.12 17.86 1.99 52.73 1.1 53.68l6.4-0.46c-1.25-18.1-0.76-36.19-3.75-54.29-2.15-6.92-5.35-8.76-7.91-10.84-32.21-10.69-60.44-12.71-81.68-12.72zm-36.5 28.69c0.27 17.48 3.03 51.54 0.81 52.44-0.27 0.89-21.06 0.97-25.03 0.59-1.64 0.14-1.56-2.64-0.53-5.31 8.25-15.91 14.12-32.41 24.75-47.72zm121.81 49.75l-0.75 0.03v0.03l0.75-0.06z" fill="#ccc" transform="translate(-138.64 30.505)" fill-rule="evenodd"/>
      <path id="path3840" d="m969.11 313.2c0.37-1.59 3.78-0.62 5.72-0.88 1.24 10.95-1.97 21.23-8.36 31.02 1.26-9.68 1.96-19.9 2.64-30.14z" fill="#b3b3b3" transform="translate(-138.64 30.505)" fill-rule="evenodd"/>
      <g id="g3913" fill-rule="evenodd">
        <path id="path3842" d="m756.36 285.2l25.98-0.15c2.4 0.61 1.78 3.6 0 3.88h-25.82c-2.04-0.15-1.8-3.42-0.16-3.73z" fill="url(#radialGradient4104)" transform="translate(-138.64 30.505)"/>
        <path id="path3844" d="m783.88 286.53c0.2 1.04-0.45 2.23-1.54 2.41h-2.03c1.01 1.72-0.43 1.95-1.15 3.09-1.19 3.13 3.34 2.58 5.38 0.92 1.72-1.67 0.52-5.8-0.66-6.42z" fill="url(#radialGradient4106)" transform="translate(-138.64 30.505)"/>
        <path id="path3849" d="m779.28 289.19c-1.75 0-3.16 1.59-3.16 3.53s1.41 3.5 3.16 3.5c1.31 0 2.46-0.9 2.94-2.16-1.94 0.52-3.89 0.15-3.06-2.03 0.63-0.99 1.82-1.29 1.43-2.5 0-0.01 0.01-0.02 0-0.03-0.39-0.2-0.85-0.31-1.31-0.31z" fill="url(#radialGradient4108)" transform="translate(-138.64 30.505)"/>
      </g>
      <path id="path3293" opacity=".75" d="m638.52 209.9c1.67 23.04 1.17 46.08 1.59 69.12l117.73-5.13c0.93 0 1.09-35.63-1.06-53.74-1.93-3.42-3.14-7.21-8.66-8.84-35.57-12.64-95.81-11.77-103.77-9.54-2.39 1.97-5.97 4.39-5.83 8.13z" fill-rule="evenodd" transform="translate(-138.64 30.505)" stroke="#000" stroke-width=".125" fill="#fff"/>
      <path id="path6026" d="m597.71 282.05c0.94 0.14 1.95-0.04 3.45-0.61l36.05-78.51c4.89-6.99 11.69-9.41 18.38-10.68 8.72-0.88 97.02-0.76 109.35 21.03 3.37 6.57 2.52 39.9 3.79 59.85h3.28c-0.8-48.73-3.5-61.36-7.32-65.15-18.69-16.93-57.86-19.71-102.54-18.69-14.43-0.29-23.39 4.61-28.78 12.88l-35.66 79.88z" fill-rule="evenodd" transform="translate(-138.64 30.505)" stroke="#000" stroke-width=".125" fill="#e6e6e6"/>
      <path id="path3743" d="m591.81 282.67l176.88-9.07 6.6 2.2-179.3 8.03 0.15-0.71-4.33-0.45z" fill="url(#linearGradient4110)" transform="translate(-138.64 30.505)" fill-rule="evenodd"/>
      <g id="g4434">
        <path id="path4057" d="m668.81 260.4a13.915 15.51 0 1 1 -27.83 0 13.915 15.51 0 1 1 27.83 0z" fill="url(#radialGradient4112)" transform="matrix(1.0394 0 0 1.0176 -164.98 25.639)"/>
        <path id="path4055" d="m642.41 282.62c0.46 1.14 0.05 1.56 2.42 1.54l7.92-13.86c-0.65-1.49-0.91-3.76-3.52-1.32l-6.82 13.64z" fill="url(#linearGradient4114)" transform="translate(-138.64 30.505)" fill-rule="evenodd"/>
        <path id="path4216" d="m646.69 247.4l2.8 8.01c2.14-0.18 4.28-0.41 6.22 0.62l5.91-6.92 2.57 1.24c-7.67-8.47-13.91-5.3-17.5-2.95z" fill="url(#linearGradient4116)" transform="translate(-138.64 30.505)" fill-rule="evenodd"/>
        <path id="path4211" d="m654.66 244.34c7.83 0.19 14.15 7.19 14.15 15.78 0 8.6-6.32 15.57-14.15 15.76 0.11 0 0.23 0.03 0.34 0.03 8.34 0 15.09-7.07 15.09-15.79 0-8.71-6.75-15.78-15.09-15.78h-0.34z" fill="#ccc" transform="translate(-138.64 30.505)"/>
        <path id="path4218" d="m657.09 261.4c0.02 1.48-0.52 2.89-1.93 4.17l5 7.89c6.12-3.26 7.36-7.52 7.61-11.98l-10.68-0.08z" fill="url(#linearGradient4118)" transform="translate(-138.64 30.505)" fill-rule="evenodd"/>
      </g>
      <path id="path3300" opacity=".75" d="m634.45 224.22c-10.63 15.31-16.5 31.82-24.75 47.73-1.02 2.67-1.1 5.44 0.53 5.3 3.97 0.38 24.76 0.31 25.03-0.59 2.22-0.9-0.54-34.96-0.81-52.44z" fill-rule="evenodd" transform="translate(-138.64 30.505)" stroke="#000" stroke-width=".125" fill="#fff"/>
      <path id="path4487" d="m49.314 393.47l4.823 1.09c0.192-1.39 0.863-2.46 1.749-2.6l19.901-0.6c7.045-0.27 3.975-3.33-0.804-3.49l-22.091-0.31c0.454 1.71 0.752 3.43 0.623 5.14l-4.201 0.77z" fill="url(#radialGradient4120)" transform="translate(-138.64 30.505)" fill-rule="evenodd"/>
      <path id="path4514" d="m85.872 390.83l27.998-0.62c3.22 7.54-22.982 4.32-27.998 0.62z" fill="url(#radialGradient4122)" transform="translate(-138.64 30.505)" fill-rule="evenodd"/>
      <path id="path4516" d="m128.1 389.55c4.35-0.62 11.6 0.97 11.6 0.97 0.05 1.81-5.87 2.43-11.51 3.11l-0.09-4.08z" fill="url(#radialGradient4124)" transform="translate(-138.64 30.505)" fill-rule="evenodd"/>
      <path id="path4546" d="m55.814 421.65c2.21-0.08 4.168-0.4 7.156 0.31 0.247 1.03-0.368 2.07-3.422 3.11-3.633 0.77-4.228-0.89-3.734-3.42z" fill="url(#radialGradient4126)" fill-rule="evenodd"/>
      <path id="path4518" d="m102.17 420.71l18.05-0.31c3.85 4.36 3.93 7.88 0.31 10.58l-18.98-1.24c-13.441-3.01-16.449-6.02 0.62-9.03z" fill-rule="evenodd" stroke="url(#radialGradient4130)" stroke-width=".125" fill="url(#radialGradient4128)"/>
      <path id="path3586" d="m623.82 233.88c5.88-9.78 10.16-23.98 13.2-28.6 2.25 0.06-1.12 5.36-2.97 9.24 0.61 1.01 1.39 1.84 0.88 3.96-0.76 0.3-1.14-0.38-2.42 1.21-2.12 6.22-4.76 10.36-7.15 15.51-0.62 0.03-1.47 1.1-1.54-1.32z" fill="url(#linearGradient4132)" transform="translate(-138.64 30.505)" fill-rule="evenodd"/>
      <path id="path3605" d="m621.84 238.06l2.2-0.11-1.21 5.61-2.42 1.76 0.44 1.98-13.09 28.28 0.77 1.98 19.36 0.22 7.81-0.77-0.22 1.1c-10.11 2.15-20.55 2.22-30.8 1.32-1.63-0.22-0.88-2.13-0.55-3.74 2.36-5.35 4.57-10.77 7.48-15.84 0 0-0.1 1.88 0.44 1.98 1.53 0.28 5.67-9.68 5.83-10.24 0.31-1.12-0.43-2.85-1.43-1.65 2.06-4.57 2.8-8.62 5.39-11.88z" fill="url(#radialGradient4134)" transform="translate(-138.64 30.505)" fill-rule="evenodd"/>
      <g id="g3801" transform="translate(-138.64 30.505)">
        <g id="g3773">
          <g id="g3677">
            <path id="path3659" opacity=".5" d="m326.72 338.94c-4.22 4.73-6.88 11.59-6.88 19.22 0 14.25 9.27 25.84 20.69 25.84h0.13l9.68-5.31-6.37-0.31s3.41-6.69 4.65-6.69c1.25 0-11.5 0.62-11.5 0.62l-5.15 0.78-0.78-2.34 6.25-6.22 1.37-2.47 10.44-0.15 1.72 1.21 7.47 0.16 0.9-8.22h-3.56l-4.81 0.75-3.59-0.28-2.5-2.5-2.94 3.09-8.41 0.16s-10.1-2.94-10.87-3.25l2.15-3.59 18.07-0.91-9.19-2.19 10.43-2.18-17.4-5.22z" fill="url(#linearGradient4136)" fill-rule="evenodd"/>
          </g>
          <g id="g3782" fill-rule="evenodd">
            <path id="path3620" opacity=".5" stroke-linejoin="round" d="m361.22 357.38a24.113 26.602 0 1 1 -48.22 0 24.113 26.602 0 1 1 48.22 0z" transform="matrix(.85829 0 0 .97097 51.194 11.153)" stroke="#000" stroke-linecap="round" stroke-width=".125" fill="url(#linearGradient4138)"/>
            <path id="path3657" opacity=".5" d="m340.53 332.34c-1.65 0-3.24 0.24-4.78 0.69l-0.78 0.5c25.67 0.12 27.12 25.28 20.37 42.66 3.64-4.66 5.88-11.03 5.88-18.03 0-14.26-9.26-25.82-20.69-25.82z" fill="url(#radialGradient4140)"/>
            <path id="path3258" d="m326.72 338.94c-0.12 0.13-0.23 0.27-0.34 0.4-0.15 0.17-0.3 0.33-0.44 0.5-0.49 0.6-0.94 1.25-1.38 1.91l-0.03 0.06c-0.4 0.61-0.8 1.26-1.15 1.91-0.05 0.08-0.09 0.17-0.13 0.25-0.14 0.26-0.27 0.54-0.41 0.81-0.05 0.11-0.1 0.21-0.15 0.31-0.12 0.26-0.23 0.5-0.35 0.75-0.14 0.32-0.27 0.65-0.4 0.97-0.04 0.11-0.09 0.21-0.13 0.31-0.04 0.12-0.08 0.23-0.12 0.35-0.08 0.21-0.15 0.44-0.22 0.65-0.08 0.25-0.14 0.48-0.22 0.72-0.09 0.31-0.2 0.6-0.28 0.91-0.04 0.15-0.09 0.31-0.13 0.47-0.06 0.23-0.1 0.48-0.15 0.72-0.03 0.11-0.07 0.23-0.1 0.34-0.03 0.14-0.06 0.29-0.09 0.44-0.07 0.35-0.16 0.7-0.22 1.06-0.01 0.06-0.02 0.13-0.03 0.19-0.13 0.78-0.21 1.57-0.28 2.37-0.03 0.39-0.08 0.77-0.09 1.16-0.01 0.08 0 0.17 0 0.25-0.03 0.47-0.04 0.93-0.04 1.41 0 0.44 0.02 0.9 0.04 1.34 0.01 0.44 0.02 0.85 0.06 1.28v0.03c0.07 0.86 0.17 1.73 0.31 2.57 0.55 3.36 1.64 6.47 3.13 9.21 0.37 0.69 0.76 1.37 1.18 2 1.06 1.6 2.27 3.01 3.6 4.25 0.53 0.5 1.08 0.98 1.65 1.41 2.28 1.73 4.83 2.91 7.57 3.44 0.68 0.13 1.38 0.23 2.09 0.28 0.35 0.02 0.7 0.03 1.06 0.03h0.13l9.68-5.31-6.37-0.31s3.41-6.69 4.65-6.69c1.25 0-11.5 0.62-11.5 0.62l-5.15 0.78-0.78-2.34 6.25-6.22 1.37-2.47 10.44-0.15 1.72 1.21 7.47 0.16 0.9-8.22h-3.56l-4.81 0.75-3.59-0.28-2.5-2.5-2.94 3.09-8.41 0.16s-10.1-2.94-10.87-3.25l2.15-3.59 18.07-0.91-9.19-2.19 10.43-2.18-17.4-5.22z" fill="url(#linearGradient4142)"/>
          </g>
        </g>
      </g>
      <g id="g9769" fill-rule="evenodd" transform="translate(-138.64 30.505)">
        <path id="path3347" d="m255.38 421c3.56-0.18 4.84 1.16 6.5 2.25 6.37 11.63 12.61 23.32 19.62 34.63 4.55 3.37 6.71 6.09 4.62 10.62-2.83 0.91-10.49 0.57-12.24-0.25-4.12-5.54-15.18-25.18-20.38-44.13-0.15-1.72-0.55-3.65 1.88-3.12z" fill="#e6e6e6"/>
        <path id="path9755" d="m254.59 420.91l-0.71 0.56c2.29 1.04 5.25 2.97 7.27 2.38 6.2 12.07 11.17 23.53 18.6 36.21 1.3-0.86 6.43 1.74 5.25 3.41-3.13 5.15-10.16-4.38-11.31 4.5 0.06 0.09 0.13 0.2 0.19 0.28 1.75 0.82 9.41 1.16 12.24 0.25 2.09-4.53-0.07-7.25-4.62-10.62-7.01-11.31-13.25-23-19.62-34.63-1.66-1.09-2.94-2.43-6.5-2.25-0.31-0.07-0.57-0.1-0.79-0.09z" fill="url(#radialGradient4144)"/>
      </g>
      <path id="path3345" d="m-66.643 450.51c5.694 13.22 9.099 26.22 17.75 39.75 6.633 4.99 14.271 3.29 17.25 2.87 1.506-1.22 1.644-2.08 1.5-3.62-9.107-14.79-18.977-28.05-29.75-39.5-4.805-1.33-5.866-0.47-6.75 0.5z" fill="#ccc" fill-rule="evenodd"/>
      <path id="path9777" d="m-63.893 449.32c-0.7 0-1.224 0.13-1.625 0.31-0.154 0.36-0.312 0.74-0.312 0.78l4.406 0.88c8.121 11.78 11.869 23.74 17.149 36.09 0.417 4.03-0.03 5.51-4.305 3.09 6.558 4.71 14.004 3.08 16.937 2.66 1.506-1.22 1.644-2.08 1.5-3.62-9.107-14.79-18.977-28.05-29.75-39.5-1.802-0.5-3.063-0.7-4-0.69z" fill="url(#radialGradient4146)" fill-rule="evenodd"/>
    </g>
  </g>
  <metadata>
    <rdf:RDF>
      <cc:Work>
        <dc:format>image/svg+xml</dc:format>
        <dc:type rdf:resource="http://purl.org/dc/dcmitype/StillImage"/>
        <cc:license rdf:resource="http://creativecommons.org/licenses/publicdomain/"/>
        <dc:publisher>
          <cc:Agent rdf:about="http://openclipart.org/">
            <dc:title>Openclipart</dc:title>
          </cc:Agent>
        </dc:publisher>
        <dc:title>American Sport Car</dc:title>
        <dc:date>2008-04-14T11:59:18</dc:date>
        <dc:description>A famous american sport car.&#xD;\nLooks quite good to be usable.</dc:description>
        <dc:source>http://openclipart.org/detail/16372/american-sport-car-by-bobocal-16372</dc:source>
        <dc:creator>
          <cc:Agent>
            <dc:title>bobocal</dc:title>
          </cc:Agent>
        </dc:creator>
        <dc:subject>
          <rdf:Bag>
            <rdf:li>car</rdf:li>
            <rdf:li>clip art</rdf:li>
            <rdf:li>clipart</rdf:li>
            <rdf:li>how i did it</rdf:li>
            <rdf:li>image</rdf:li>
            <rdf:li>media</rdf:li>
            <rdf:li>png</rdf:li>
            <rdf:li>public domain</rdf:li>
            <rdf:li>svg</rdf:li>
            <rdf:li>transportation</rdf:li>
          </rdf:Bag>
        </dc:subject>
      </cc:Work>
      <cc:License rdf:about="http://creativecommons.org/licenses/publicdomain/">
        <cc:permits rdf:resource="http://creativecommons.org/ns#Reproduction"/>
        <cc:permits rdf:resource="http://creativecommons.org/ns#Distribution"/>
        <cc:permits rdf:resource="http://creativecommons.org/ns#DerivativeWorks"/>
      </cc:License>
    </rdf:RDF>
  </metadata>
</svg>
